<svg xmlns="http://www.w3.org/2000/svg" width="161.875" height="139.695" viewBox="0 0 161.875 139.695">
  <g id="Grupo_193" data-name="Grupo 193" transform="translate(-780.2 -731.324)">
    <g id="Grupo_23" data-name="Grupo 23">
      <g id="Grupo_15" data-name="Grupo 15" opacity="0.99">
        <rect id="Ret창ngulo_28" data-name="Ret창ngulo 28" width="121.653" height="90.444" rx="14.691" transform="translate(783.454 742.381)" fill="#898989"/>
      </g>
      <g id="Grupo_16" data-name="Grupo 16">
        <path id="Caminho_141" data-name="Caminho 141" d="M896.081,836.7H791.946c-6.477,0-11.746-5.594-11.746-12.47V743.795c0-6.877,5.269-12.471,11.746-12.471H896.081c6.477,0,11.746,5.594,11.746,12.471v80.438C907.827,831.109,902.558,836.7,896.081,836.7ZM791.946,738.417a5.234,5.234,0,0,0-5.065,5.378v80.438a5.235,5.235,0,0,0,5.065,5.378H896.081a5.235,5.235,0,0,0,5.065-5.378V743.795a5.234,5.234,0,0,0-5.065-5.378Z" fill="#fff"/>
      </g>
      <g id="Grupo_17" data-name="Grupo 17">
        <rect id="Ret창ngulo_29" data-name="Ret창ngulo 29" width="115.788" height="15.02" transform="translate(786.589 734.871)" fill="#fff"/>
      </g>
      <g id="Grupo_18" data-name="Grupo 18">
        <ellipse id="Elipse_12" data-name="Elipse 12" cx="3.165" cy="3.36" rx="3.165" ry="3.36" transform="translate(804.087 737.352)" fill="#db615c"/>
      </g>
      <g id="Grupo_19" data-name="Grupo 19">
        <ellipse id="Elipse_13" data-name="Elipse 13" cx="3.165" cy="3.36" rx="3.165" ry="3.36" transform="translate(795.338 737.352)" fill="#dfc645"/>
      </g>
      <g id="Grupo_20" data-name="Grupo 20">
        <ellipse id="Elipse_14" data-name="Elipse 14" cx="3.165" cy="3.36" rx="3.165" ry="3.36" transform="translate(786.589 737.352)" fill="#bed360"/>
      </g>
      <g id="Grupo_21" data-name="Grupo 21">
        <path id="Caminho_142" data-name="Caminho 142" d="M893.9,757.905H794.124a1.463,1.463,0,0,1,0-2.92H893.9a1.463,1.463,0,0,1,0,2.92Z" fill="#fff"/>
      </g>
      <g id="Grupo_22" data-name="Grupo 22">
        <path id="Caminho_143" data-name="Caminho 143" d="M855.928,766.1h-61.8a1.463,1.463,0,0,1,0-2.921h61.8a1.463,1.463,0,0,1,0,2.921Z" fill="#fff"/>
      </g>
    </g>
    <path id="Caminho_144" data-name="Caminho 144" d="M837.294,835.355c.057-.851-.442-1.949.559-2.438a6.407,6.407,0,0,1,4.4-.768c.922.24.923,1.43,1.316,2.205.38.749.427,1.652,1.67,1.779a2.436,2.436,0,0,0,2.66-1.353c.464-.768.809-2.046,1.869-1.906a7.448,7.448,0,0,1,4.071,1.866c.8.747.011,1.786-.2,2.661-.259,1.065-.416,1.928.712,2.71a1.781,1.781,0,0,0,1.966.334c.525-.232,1.082-.392,1.626-.581a1.969,1.969,0,0,1,.742-.231c1.942.2,1.852,2.161,2.765,3.257a1.25,1.25,0,0,1-.272,1.926c-.483.4-.924.866-1.441,1.216a1.771,1.771,0,0,0-.839,2.1,2.017,2.017,0,0,0,1.707,1.722c3.01.857,3,.888,2.609,3.8-.337,2.5-.338,2.5-2.882,2.637-.971.053-1.927-.062-2.414,1.22a1.976,1.976,0,0,0,.317,2.245c2.1,2.654,2.319,2.082-.162,4.8-1.576,1.731-1.557,1.7-3.612.5-.68-.4-1.263-1.263-2.221-.85a2.133,2.133,0,0,0-1.609,2.314c.2,3.4.055,3.393-3.432,3.981-1.436.242-2.182-.146-2.571-1.509a7.146,7.146,0,0,0-.867-2.013c-.589-.877-2.448-.59-3.138.411-1.984,2.884-1.412,2.94-4.6,1.522-2.257-1-2.308-1-1.652-3.5.314-1.2.445-2.175-.8-2.967a1.433,1.433,0,0,0-1.4-.208c-3.617,1.156-3.582,1.121-5.444-2.106a1.571,1.571,0,0,1,.457-2.4c.424-.307.791-.691,1.209-1.005a1.575,1.575,0,0,0,.748-1.963c-.262-.908-.528-1.412-1.507-1.68-3.266-.894-3.116-.931-2.875-4.238.137-1.872,1.064-2.224,2.608-2.292.9-.04,1.959.355,2.528-.981a2.179,2.179,0,0,0-.388-2.8,12.072,12.072,0,0,1-1.159-1.485,1.022,1.022,0,0,1-.082-1.313c.833-1.009,1.71-1.984,2.612-2.931a.984.984,0,0,1,1.3-.029c.4.244.824.463,1.215.725.961.646,1.742,1.2,3.071.357C837.74,837.268,837.229,836.316,837.294,835.355Zm-2.207,15.888a8.841,8.841,0,0,0,8.889,8.721,8.715,8.715,0,0,0,8.543-8.538,8.717,8.717,0,1,0-17.432-.183Z" fill="#db615c"/>
    <g id="Grupo_24" data-name="Grupo 24">
      <path id="Caminho_145" data-name="Caminho 145" d="M896.2,789.267h9.542a1.312,1.312,0,0,0,.025.352c1.244,3.471,2.506,6.935,3.729,10.412a1.222,1.222,0,0,0,.815.764c1.693.691,3.395,1.36,5.069,2.094a1.426,1.426,0,0,0,1.363-.048c3.093-1.581,6.2-3.131,9.294-4.714a.773.773,0,0,1,1.089.173c1.835,1.883,3.687,3.751,5.581,5.573a.947.947,0,0,1,.2,1.323c-1.52,3.124-3,6.267-4.518,9.391a1.39,1.39,0,0,0-.031,1.282c.724,1.678,1.429,3.365,2.1,5.064a1.316,1.316,0,0,0,.929.877c1.571.482,3.113,1.061,4.685,1.539,2.006.609,3.945,1.432,6,1.881v9.358c-3.555,1.277-7.106,2.563-10.668,3.816a1.248,1.248,0,0,0-.81.775c-.736,1.739-1.48,3.475-2.25,5.2a1.224,1.224,0,0,0,.041,1.187c1.608,3.114,3.172,6.251,4.785,9.362a.814.814,0,0,1-.182,1.152q-2.82,2.757-5.573,5.58a.9.9,0,0,1-1.244.189c-3.039-1.482-6.108-2.9-9.139-4.4a1.991,1.991,0,0,0-1.871-.038c-1.589.7-3.2,1.339-4.828,1.953a1.483,1.483,0,0,0-.961,1.077c-1.041,3.282-2.135,6.546-3.17,9.83a.886.886,0,0,1-1.022.745c-2.567-.032-5.136-.044-7.7.006-.692.013-.924-.249-1.133-.852-1.132-3.251-2.32-6.483-3.468-9.728a1.406,1.406,0,0,0-.888-.932c-1.644-.646-3.293-1.289-4.893-2.035a1.72,1.72,0,0,0-1.687.09c-3.041,1.546-6.1,3.056-9.136,4.611A.756.756,0,0,1,875.2,862q-2.785-2.855-5.642-5.64a.832.832,0,0,1-.184-1.16c1.533-3.151,3.02-6.324,4.548-9.477a1.385,1.385,0,0,0,.04-1.281c-.7-1.623-1.38-3.254-2.02-4.9a1.7,1.7,0,0,0-1.178-1.111c-3.3-1.061-6.59-2.187-9.9-3.244a.76.76,0,0,1-.638-.892c.024-2.6.044-5.2-.01-7.795-.015-.694.262-.917.843-1.119,3.252-1.128,6.487-2.3,9.737-3.435a1.4,1.4,0,0,0,.942-.876c.662-1.671,1.343-3.335,2.062-4.982a1.623,1.623,0,0,0-.087-1.541c-1.544-3.01-3.034-6.048-4.581-9.057a.927.927,0,0,1,.181-1.322c1.87-1.8,3.7-3.647,5.515-5.509a.906.906,0,0,1,1.251-.215c3.12,1.527,6.264,3,9.385,4.527a1.508,1.508,0,0,0,1.375.042c1.684-.71,3.373-1.408,5.081-2.059a1.488,1.488,0,0,0,.968-1.078c.7-2.238,1.471-4.455,2.154-6.7A23.9,23.9,0,0,0,896.2,789.267Zm22.495,40.9a17.541,17.541,0,1,0-17.528,17.567A17.549,17.549,0,0,0,918.7,830.171Z" fill="#db615c"/>
    </g>
    <circle id="Elipse_15" data-name="Elipse 15" cx="17.541" cy="17.541" r="17.541" transform="translate(883.617 812.631)" fill="#dfc645"/>
  </g>
</svg>
