<svg xmlns="http://www.w3.org/2000/svg" width="687.012" height="687.976" viewBox="0 0 687.012 687.976">
  <g id="Grupo_110" data-name="Grupo 110" transform="translate(-36.227 1468.634)">
    <path id="Caminho_204" data-name="Caminho 204" d="M173.72,382.956,58.376,316.361V183.173l115.345-66.594,115.345,66.594V316.361Z" transform="translate(210.985 -1569.789)" fill="none" stroke="#fcdc65" stroke-miterlimit="10" stroke-width="4"/>
    <path id="Caminho_212" data-name="Caminho 212" d="M115.345,266.378,0,199.783V66.594L115.345,0,230.69,66.594V199.783Z" transform="translate(382.726 -1251.277)" fill="none" stroke="#fcdc65" stroke-miterlimit="10" stroke-width="4"/>
    <path id="Caminho_207" data-name="Caminho 207" d="M115.345,266.378,0,199.783V66.594L115.345,0,230.69,66.594V199.783Z" transform="translate(270.541 -1049.344)" fill="none" stroke="#fcdc65" stroke-miterlimit="10" stroke-width="4"/>
    <path id="Caminho_201" data-name="Caminho 201" d="M115.345,266.378,0,199.783V66.594L115.345,0,230.69,66.594V199.783" transform="translate(151.271 -1253.639)" fill="none" stroke="#fcdc65" stroke-miterlimit="10" stroke-width="4"/>
    <path id="Caminho_210" data-name="Caminho 210" d="M70.641,144.9l-12.265-7.081V123.66l12.265-7.081,12.265,7.081v14.163Z" transform="translate(314.406 -1584.031)" fill="#fdca0c"/>
    <path id="Caminho_215" data-name="Caminho 215" d="M70.641,144.9l-12.265-7.081V123.66l12.265-7.081,12.265,7.081v14.163Z" transform="translate(428.953 -1509.635)" fill="#fdca0c"/>
    <path id="Caminho_216" data-name="Caminho 216" d="M70.641,144.9l-12.265-7.081V123.66l12.265-7.081,12.265,7.081v14.163Z" transform="translate(428.953 -1380.917)" fill="#fdca0c"/>
    <path id="Caminho_211" data-name="Caminho 211" d="M70.641,144.9l-12.265-7.081V123.66l12.265-7.081,12.265,7.081v14.163Z" transform="translate(310.864 -1317.149)" fill="#fdca0c"/>
    <path id="Caminho_199" data-name="Caminho 199" d="M313.552,543.1,204.185,473,92,543.1" transform="translate(-41.87 -1927.896)" fill="none" stroke="#fcdc65" stroke-width="4"/>
    <path id="Caminho_205" data-name="Caminho 205" d="M70.641,144.9l-12.265-7.081V123.66l12.265-7.081,12.265,7.081v14.163Z" transform="translate(198.679 -1380.917)" fill="#fdca0c"/>
    <path id="Caminho_206" data-name="Caminho 206" d="M70.641,144.9l-12.265-7.081V123.66l12.265-7.081,12.265,7.081v14.163Z" transform="translate(201.04 -1515.539)" fill="#fdca0c"/>
    <path id="Caminho_219" data-name="Caminho 219" d="M566,713.825l100.77-68.492" transform="translate(43.873 -1896.722)" fill="none" stroke="#fcdc65" stroke-width="4"/>
    <path id="Caminho_202" data-name="Caminho 202" d="M70.641,144.9l-12.265-7.081V123.66l12.265-7.081,12.265,7.081v14.163Z" transform="translate(90.036 -1585.212)" fill="#fdca0c"/>
    <path id="Caminho_200" data-name="Caminho 200" d="M70.641,144.9l-12.265-7.081V123.66l12.265-7.081,12.265,7.081v14.163Z" transform="translate(-7.978 -1522.624)" fill="#fdca0c"/>
    <path id="Caminho_208" data-name="Caminho 208" d="M191.488,815.36,85.333,869.65" transform="translate(-43.076 -1865.965)" fill="none" stroke="#fcdc65" stroke-width="4"/>
    <path id="Caminho_203" data-name="Caminho 203" d="M70.641,144.9l-12.265-7.081V123.66l12.265-7.081,12.265,7.081v14.163Z" transform="translate(80.589 -1317.149)" fill="#fdca0c"/>
    <path id="Caminho_209" data-name="Caminho 209" d="M70.641,144.9l-12.265-7.081V123.66l12.265-7.081,12.265,7.081v14.163Z" transform="translate(80.589 -1181.346)" fill="#fdca0c"/>
    <path id="Caminho_220" data-name="Caminho 220" d="M569,815.36l91.716,68.461" transform="translate(44.416 -1865.965)" fill="none" stroke="#fcdc65" stroke-width="4"/>
    <path id="Caminho_214" data-name="Caminho 214" d="M70.641,144.9l-12.265-7.081V123.66l12.265-7.081,12.265,7.081v14.163Z" transform="translate(199.86 -1118.759)" fill="#fdca0c"/>
    <path id="Caminho_217" data-name="Caminho 217" d="M70.641,144.9l-12.265-7.081V123.66l12.265-7.081,12.265,7.081v14.163Z" transform="translate(428.953 -1115.216)" fill="#fdca0c"/>
    <path id="Caminho_218" data-name="Caminho 218" d="M70.641,144.9l-12.265-7.081V123.66l12.265-7.081,12.265,7.081v14.163Z" transform="translate(542.319 -1180.165)" fill="#fdca0c"/>
    <path id="Caminho_221" data-name="Caminho 221" d="M70.641,144.9l-12.265-7.081V123.66l12.265-7.081,12.265,7.081v14.163Z" transform="translate(636.79 -1114.035)" fill="#fdca0c"/>
    <path id="Caminho_222" data-name="Caminho 222" d="M70.641,144.9l-12.265-7.081V123.66l12.265-7.081,12.265,7.081v14.163Z" transform="translate(640.333 -1376.194)" fill="#fdca0c"/>
    <path id="Caminho_223" data-name="Caminho 223" d="M70.641,144.9l-12.265-7.081V123.66l12.265-7.081,12.265,7.081v14.163Z" transform="translate(198.679 -981.775)" fill="#fdca0c"/>
    <path id="Caminho_213" data-name="Caminho 213" d="M70.641,144.9l-12.265-7.081V123.66l12.265-7.081,12.265,7.081v14.163Z" transform="translate(-22.149 -1132.929)" fill="#fdca0c"/>
  </g>
</svg>
