<svg xmlns="http://www.w3.org/2000/svg" width="74" height="74" viewBox="0 0 74 74">
  <g id="ajuda" transform="translate(1.01 90.18)">
    <g id="Camada_1" data-name="Camada 1" transform="translate(-1 -90.18)">
      <path id="Caminho_300" data-name="Caminho 300" d="M37,0A37,37,0,1,0,73.99,37,37,37,0,0,0,37,0Zm2.5,58H28.994V47.941H39.5Zm9.1-23.39A14.688,14.688,0,0,1,38.929,37.9v5.2H29.473V31.422h3.938a14.676,14.676,0,0,0,6.572-1.2A4.417,4.417,0,0,0,42.377,25.9a4.178,4.178,0,0,0-1.125-3.112,4.046,4.046,0,0,0-2.993-1.125,4.369,4.369,0,0,0-3.316,1.269,4.489,4.489,0,0,0-1.2,3.208H24.29a12.114,12.114,0,0,1,1.5-6.44,11.2,11.2,0,0,1,4.908-4.585,17.345,17.345,0,0,1,7.936-1.676,14.616,14.616,0,0,1,9.923,3.208c2.466,2.131,3.711,5.2,3.711,9.193A11.072,11.072,0,0,1,48.6,34.606Z" transform="translate(0 0)" fill="#ebc02e"/>
    </g>
  </g>
</svg>
