<svg xmlns="http://www.w3.org/2000/svg" width="64" height="61.902" viewBox="0 0 64 61.902">
  <g id="chat" transform="translate(0 0.001)">
    <g id="Camada_1" data-name="Camada 1" transform="translate(0 -0.001)">
      <path id="Caminho_295" data-name="Caminho 295" d="M60.063,38.441A23.15,23.15,0,0,0,64.4,24.972C64.4,11.2,52,0,36.71,0A29.071,29.071,0,0,0,14.5,10.049,32.094,32.094,0,0,1,28.173,7.025c16.473,0,29.865,12.152,29.865,27.133A25.282,25.282,0,0,1,52.457,49.9a54.817,54.817,0,0,0,10.766,2.81h.145a1.066,1.066,0,0,0,.969-.591,1.047,1.047,0,0,0-.2-1.221C62.04,48.8,60.606,44.381,60.063,38.441Z" transform="translate(-0.449 0.001)" fill="#fff"/>
      <path id="Caminho_296" data-name="Caminho 296" d="M27.724,9.45C12.442,9.45,0,20.642,0,34.422A23.111,23.111,0,0,0,4.38,47.891c-.5,5.94-1.986,10.349-4.07,12.481A1.066,1.066,0,0,0,.116,61.6a1.047,1.047,0,0,0,.969.591h.145c.378,0,8.993-1.289,15.272-4.845A30.04,30.04,0,0,0,27.724,59.4c15.291,0,27.733-11.2,27.733-24.972S43.015,9.45,27.724,9.45ZM20.8,25.923H35.728a1.066,1.066,0,1,1,0,2.132H20.8a1.066,1.066,0,0,1,0-2.132ZM41.59,42.93H14.933a1.066,1.066,0,0,1,0-2.132H41.59a1.066,1.066,0,1,1,0,2.132Zm0-7.461H14.933a1.066,1.066,0,0,1,0-2.132H41.59a1.066,1.066,0,0,1,0,2.132Z" transform="translate(0 -0.292)" fill="#fff"/>
    </g>
  </g>
</svg>
