<svg id="Componente_1_1" data-name="Componente 1 – 1" xmlns="http://www.w3.org/2000/svg" width="143.42" height="174.17" viewBox="0 0 143.42 174.17">
  <g id="Grupo_41" data-name="Grupo 41" transform="translate(-616.428 -814.379)" opacity="0.57">
    <g id="Grupo_34" data-name="Grupo 34" transform="translate(616.428 814.379)">
      <path id="Caminho_149" data-name="Caminho 149" d="M629.052,832.727s39.41,10.892,64.657-6.871c0,0,36.822,16.744,68.227,7.281,0,0,16.751,122.754-67.3,159.7C694.632,992.84,610.579,968.208,629.052,832.727Z" transform="translate(-623.158 -822.123)" fill="#fdca0c"/>
      <path id="Caminho_150" data-name="Caminho 150" d="M688.126,988.549l-1.133-.334a67.47,67.47,0,0,1-13.568-6.277A102.791,102.791,0,0,1,645.659,957.9c-11.162-13.781-19.25-30.589-24.039-49.954-5.941-24.024-6.788-52.081-2.519-83.4l.5-3.684,3.582.99c.38.1,38.254,10.257,61.923-6.4l1.522-1.071,1.694.77c.356.162,36.109,16.117,65.944,7.128l3.644-1.1.515,3.77a237.427,237.427,0,0,1-2.152,67.008c-3.741,20.9-10.344,39.168-19.625,54.3C724.96,965.3,709,979.37,689.209,988.069ZM625.078,828.974c-3.608,28.927-2.676,54.85,2.777,77.1,4.511,18.406,12.112,34.354,22.592,47.4,15.481,19.274,32.843,26.519,37.3,28.136,18.027-8.193,32.613-21.225,43.37-38.754,8.855-14.432,15.169-31.94,18.766-52.039a238.9,238.9,0,0,0,2.508-61.3c-9.585,2.256-24.163,3.449-43.8-1.041a138.078,138.078,0,0,1-21.263-6.673c-10.778,6.978-25.344,10.315-42.271,9.66a120.1,120.1,0,0,1-19.979-2.48Z" transform="translate(-616.428 -814.379)"/>
    </g>
    <g id="Grupo_35" data-name="Grupo 35" transform="translate(670.501 861.316)">
      <ellipse id="Elipse_22" data-name="Elipse 22" cx="16.936" cy="13.856" rx="16.936" ry="13.856" transform="translate(0 0)" fill="#fff"/>
    </g>
    <g id="Grupo_36" data-name="Grupo 36" transform="translate(649.078 843.113)">
      <path id="Caminho_151" data-name="Caminho 151" d="M750.4,921.231c-.029-7.433-10.8-12.689-15.714-13.946-7.3-1.867-12.389-1.665-13.971.554-1.193,1.674-.3,4.323.539,5.6,1.475,2.236,2.592,2.923,3.141,2.818,1.089-.205,2.426-3.052,2.946-5.478l3.18.676c-.256,1.209-1.727,7.278-5.52,8-2.168.411-4.341-1.01-6.459-4.222-1.639-2.486-2.487-6.449-.473-9.275,2.509-3.522,8.372-4.133,17.423-1.816a33.9,33.9,0,0,1,11.113,5.4c4.593,3.438,7.03,7.478,7.046,11.681Z" transform="translate(-716.892 -902.766)" fill="#fff"/>
    </g>
    <g id="Grupo_37" data-name="Grupo 37" transform="translate(688.779 842.858)">
      <path id="Caminho_152" data-name="Caminho 152" d="M842.3,920.463l-3.25-.013c.016-4.2,2.39-8.232,6.865-11.665a32.832,32.832,0,0,1,10.9-5.414c8.776-2.3,14.495-1.706,17,1.755,2.048,2.829,1.238,6.815-.381,9.321-2.059,3.187-4.184,4.6-6.317,4.207-3.748-.694-5.209-6.761-5.464-7.97l3.18-.672c.642,3.016,2.03,5.291,2.875,5.446.5.092,1.578-.582,2.995-2.775.9-1.385,1.635-4.054.478-5.652-1.57-2.169-6.507-2.357-13.544-.516C852.838,907.769,842.325,913.022,842.3,920.463Z" transform="translate(-839.05 -901.998)" fill="#fff"/>
    </g>
    <g id="Grupo_38" data-name="Grupo 38" transform="translate(662.94 895.476)">
      <path id="Caminho_153" data-name="Caminho 153" d="M759.594,1070.76c1.161,8.224,5.536,7.909,6.774,7.647a4.561,4.561,0,0,1,.8-.1l37.006-1.17a4.83,4.83,0,0,0,4.675-5l-.126-3.6a4.831,4.831,0,0,0-5-4.658l-39.518,1.383a4.831,4.831,0,0,0-4.611,5.5Z" transform="translate(-759.547 -1063.876)" fill="#fff"/>
    </g>
    <g id="Grupo_39" data-name="Grupo 39" transform="translate(666.499 911.499)">
      <path id="Caminho_154" data-name="Caminho 154" d="M770.54,1119.08c.993,7.037,4.737,6.767,5.8,6.542a3.91,3.91,0,0,1,.685-.087l31.662-1a4.132,4.132,0,0,0,4-4.275l-.108-3.082a4.133,4.133,0,0,0-4.274-3.985l-33.812,1.183a4.134,4.134,0,0,0-3.953,4.7Z" transform="translate(-770.5 -1113.19)" fill="#fff"/>
    </g>
    <g id="Grupo_40" data-name="Grupo 40" transform="translate(675.066 927.261)">
      <path id="Caminho_155" data-name="Caminho 155" d="M800.132,1162.56l19.729-.88a3.438,3.438,0,0,1,2.691,5.755l-9.5,10.381a3.438,3.438,0,0,1-4.876.2l-10.235-9.5a3.439,3.439,0,0,1,2.186-5.956Z" transform="translate(-796.847 -1161.677)" fill="#fff"/>
    </g>
  </g>
  <g id="Camada_2" data-name="Camada 2" transform="translate(43 36)">
    <g id="Camada_1" data-name="Camada 1" transform="translate(0)">
      <path id="Caminho_1" data-name="Caminho 1" d="M56.5,40.337a3.127,3.127,0,0,0-2.41-3.418c-.574-.2-1.138-.429-1.712-.629-1-.349-1.048-.389-1.048-1.462V23.275a23.091,23.091,0,0,0-.888-6.677Q46.574,4.042,33.934.5A26.167,26.167,0,0,0,30.441,0h-.619c-.1.185-.2.16-.3,0H27.082c-.1.16-.2.185-.3,0h-.913c-.808.195-1.652.12-2.465.3A22.646,22.646,0,0,0,10.594,8.094a22.841,22.841,0,0,0-5.33,14.931c-.03,3.9,0,7.8,0,11.7,0,1.183,0,1.2-1.1,1.582-.644.23-1.283.5-1.926.7A3.493,3.493,0,0,0,0,40.287c.045,9.8,0,19.6.025,29.4a3.335,3.335,0,0,0,2.46,3.568A65.688,65.688,0,0,0,24.3,77.85a95.9,95.9,0,0,0,11.977-.23,68.031,68.031,0,0,0,18.015-4.436A3.07,3.07,0,0,0,56.5,69.925Zm-24.652,13.8a1.068,1.068,0,0,0-.5,1V64.79a3.054,3.054,0,0,1-4.686,2.555,2.815,2.815,0,0,1-1.412-2.47c-.025-1.647,0-3.294,0-4.94h0v-4.94a.843.843,0,0,0-.414-.8A5.759,5.759,0,0,1,22.272,48a5.854,5.854,0,0,1,4.636-4.776,6.108,6.108,0,0,1,7.485,5.345,5.764,5.764,0,0,1-2.545,5.569ZM42.577,33.855A69.923,69.923,0,0,0,23.26,32.562a67.608,67.608,0,0,0-9.227,1.283c-.469.1-.659.09-.654-.5.025-3.748-.035-7.486.03-11.243.125-6.9,5.849-13.12,12.655-14.083a15,15,0,0,1,15.854,8.663A14.218,14.218,0,0,1,43.2,22.247c.035,1.772,0,3.543,0,5.32h0v5.774c.03.539-.12.594-.624.514Z" transform="translate(0)" fill="#080408"/>
    </g>
  </g>
</svg>
