<svg id="Camada_2" data-name="Camada 2" xmlns="http://www.w3.org/2000/svg" width="141.552" height="110.089" viewBox="0 0 141.552 110.089">
  <g id="a2889d33-42cc-41f0-88ec-ec050668376c">
    <g id="Grupo_13" data-name="Grupo 13" transform="translate(33.504 29.203)" opacity="0.99">
      <path id="Caminho_131" data-name="Caminho 131" d="M137.771,124.9H62.36a5.305,5.305,0,0,1-5.141-5.463V55.328A5.305,5.305,0,0,1,62.36,49.87h92.9a5.311,5.311,0,0,1,5.147,5.458v64.1a5.311,5.311,0,0,1-5.147,5.463H137.771" transform="translate(-57.216 -49.87)" fill="#898989"/>
    </g>
    <path id="Caminho_132" data-name="Caminho 132" d="M150.785,121.531H58c-5.774,0-10.47-4.983-10.47-11.126V38.736C47.53,32.6,52.215,27.61,58,27.61h92.785c5.768,0,10.464,4.983,10.464,11.126v71.669C161.25,116.53,156.553,121.531,150.785,121.531ZM58,33.94a4.685,4.685,0,0,0-4.515,4.8v71.669A4.685,4.685,0,0,0,58,115.2h92.785a4.685,4.685,0,0,0,4.509-4.79V38.736a4.685,4.685,0,0,0-4.509-4.8Z" transform="translate(-19.697 -11.442)" fill="#fff"/>
    <path id="Caminho_133" data-name="Caminho 133" d="M137.789,46.41H57.26V33.03h80.529" transform="translate(-23.73 -13.688)" fill="#fff"/>
    <path id="Caminho_134" data-name="Caminho 134" d="M194.78,33.03h22.638V46.41H194.78" transform="translate(-80.721 -13.688)" fill="#fff"/>
    <g id="Grupo_14" data-name="Grupo 14" transform="translate(5.692 13.023)" opacity="0.99">
      <rect id="Retângulo_24" data-name="Retângulo 24" width="103.167" height="75.024" rx="14.69" fill="#898989"/>
    </g>
    <path id="Caminho_135" data-name="Caminho 135" d="M103.249,93.892H10.464C4.685,93.892,0,88.909,0,82.783V11.126C0,4.983,4.685,0,10.464,0h92.785c5.774,0,10.464,4.983,10.464,11.126V82.8C113.714,88.909,109.023,93.892,103.249,93.892ZM10.464,6.318a4.685,4.685,0,0,0-4.509,4.808V82.8a4.685,4.685,0,0,0,4.509,4.79h92.785a4.685,4.685,0,0,0,4.515-4.79V11.126a4.685,4.685,0,0,0-4.515-4.79Z" fill="#fff"/>
    <rect id="Retângulo_25" data-name="Retângulo 25" width="103.167" height="13.38" transform="translate(5.692 3.162)" fill="#fff"/>
    <ellipse id="Elipse_9" data-name="Elipse 9" cx="2.822" cy="2.992" rx="2.822" ry="2.992" transform="translate(21.28 5.37)" fill="#db615c"/>
    <ellipse id="Elipse_10" data-name="Elipse 10" cx="2.822" cy="2.992" rx="2.822" ry="2.992" transform="translate(13.486 5.37)" fill="#dfc645"/>
    <ellipse id="Elipse_11" data-name="Elipse 11" cx="2.822" cy="2.992" rx="2.822" ry="2.992" transform="translate(5.692 5.37)" fill="#bed360"/>
    <path id="Caminho_136" data-name="Caminho 136" d="M70.133,58.253a1.171,1.171,0,0,1-.849-.363,1.359,1.359,0,0,1-.035-1.839l5.686-6.3-5.317-5.985a1.359,1.359,0,0,1,.053-1.839,1.171,1.171,0,0,1,1.757.053l6.09,6.863a1.359,1.359,0,0,1,0,1.792l-6.512,7.22A1.171,1.171,0,0,1,70.133,58.253Z" transform="translate(-28.557 -17.222)" fill="#fff"/>
    <path id="Caminho_137" data-name="Caminho 137" d="M28.7,58.01a1.171,1.171,0,0,1-.9-.416l-6.037-6.945a1.359,1.359,0,0,1,0-1.792l6.57-7.138a1.171,1.171,0,0,1,1.757,0,1.359,1.359,0,0,1,0,1.839l-5.756,6.231,5.27,6.037a1.353,1.353,0,0,1-.064,1.839A1.171,1.171,0,0,1,28.7,58.01Z" transform="translate(-8.879 -17.125)" fill="#fff"/>
    <path id="Caminho_138" data-name="Caminho 138" d="M40.388,58.318a1.171,1.171,0,0,1-.439-.088,1.323,1.323,0,0,1-.709-1.675l6.3-17.608a1.2,1.2,0,0,1,1.581-.755,1.323,1.323,0,0,1,.726,1.675L41.53,57.475A1.23,1.23,0,0,1,40.388,58.318Z" transform="translate(-16.227 -15.793)" fill="#fff"/>
    <rect id="Retângulo_26" data-name="Retângulo 26" width="89.236" height="12.145" rx="6.072" transform="translate(12.66 54.342)" fill="#fff"/>
    <path id="Caminho_139" data-name="Caminho 139" d="M112.083,124.47H23.18a1.3,1.3,0,1,1,0-2.6h88.9a1.3,1.3,0,0,1,0,2.6Z" transform="translate(-9.068 -50.505)" fill="#fff"/>
    <path id="Caminho_140" data-name="Caminho 140" d="M78.264,136.93H23.22a1.3,1.3,0,0,1,0-2.6H78.264a1.3,1.3,0,0,1,0,2.6Z" transform="translate(-9.084 -55.669)" fill="#fff"/>
  </g>
</svg>
