<svg xmlns="http://www.w3.org/2000/svg" width="61.514" height="59.529" viewBox="0 0 61.514 59.529">
  <g id="inicio" transform="translate(0 -0.025)">
    <g id="Camada_1" data-name="Camada 1" opacity="0.5">
      <g id="a2889d33-42cc-41f0-88ec-ec050668376c">
        <g id="Caminho_118" data-name="Caminho 118">
          <path id="Caminho_297" data-name="Caminho 297" d="M3,28.84a1.72,1.72,0,0,1-1.23-.52,6.43,6.43,0,0,1,0-8.86c1.44-1.63,5.83-4.78,7.63-6.05V2.32A1.69,1.69,0,0,1,11.07.63L17.7.56a1.62,1.62,0,0,1,1.21.49,1.66,1.66,0,0,1,.5,1.19V6.63L26.28,1.8a6.68,6.68,0,0,1,9.07,0c1.06.76,14.06,10.13,21.16,14.88,3.14,2.1,4.8,4.41,5,6.85a6.27,6.27,0,0,1-2.1,4.91,1.7,1.7,0,0,1-2,.1L33.56,12l-.19-.16a3.52,3.52,0,0,0-5,0l-.18.15L4,28.55a1.66,1.66,0,0,1-1,.29ZM35.59,9.28l22.3,15.55a2.54,2.54,0,0,0,.2-1.13c-.1-1.31-1.29-2.77-3.45-4.22-7.42-5-21.19-14.9-21.33-15l-.14-.11a3.36,3.36,0,0,0-4.68,0l-.18.15-9.62,6.75A1.68,1.68,0,0,1,16,9.87V4H12.78V14.3a1.69,1.69,0,0,1-.73,1.39c-1.74,1.2-6.52,4.62-7.79,6.05a3.11,3.11,0,0,0-.75,3L26.24,9.27a6.82,6.82,0,0,1,9.35.01Zm-24.5,5Z" fill="#fff"/>
        </g>
        <g id="Caminho_119" data-name="Caminho 119">
          <path id="Caminho_298" data-name="Caminho 298" d="M12.52,59.55a5.6,5.6,0,0,1-4.45-1.93,8,8,0,0,1-1.63-5.25V23.47H9.81V52.55a4.18,4.18,0,0,0,.74,2.55,2.46,2.46,0,0,0,2,.74H48.78a3.64,3.64,0,0,0,3.55-3.66V24.09H55.7V52.18A7.12,7.12,0,0,1,49,59.54Z" fill="#fff"/>
        </g>
        <g id="Caminho_120" data-name="Caminho 120">
          <path id="Caminho_299" data-name="Caminho 299" d="M43.1,57.87H39.72V38.2H30.14V57.21H26.76V34.83H43.1Z" fill="#fff"/>
        </g>
      </g>
    </g>
  </g>
</svg>
