<svg xmlns="http://www.w3.org/2000/svg" width="647.689" height="601.299" viewBox="0 0 647.689 601.299">
  <g id="Grupo_192" data-name="Grupo 192" transform="translate(-138.5 -1264.695)">
    <g id="Grupo_1" data-name="Grupo 1" transform="translate(92.734 880)">
      <path id="Caminho_1" data-name="Caminho 1" d="M227.554,228.026v-74.3L291.9,116.578l64.344,37.149v74.3L291.9,265.175Z" transform="translate(77.776 269.849)" fill="#fdca0c" stroke="#c28e00" stroke-miterlimit="10" stroke-width="3"/>
      <path id="Caminho_2" data-name="Caminho 2" d="M376.389,410.9,312.045,373.75v-74.3L376.389,262.3l64.344,37.149v74.3Z" transform="translate(57.629 235.101)" fill="#fdca0c" stroke="#c28e00" stroke-miterlimit="10" stroke-width="3"/>
      <path id="Caminho_3" data-name="Caminho 3" d="M460.881,265.175l-64.344-37.149v-74.3l64.344-37.149,64.344,37.149v74.3Z" transform="translate(37.482 269.849)" fill="#fdca0c" stroke="#c28e00" stroke-miterlimit="10" stroke-width="3"/>
      <path id="Caminho_4" data-name="Caminho 4" d="M122.72,265.175,58.376,228.026v-74.3l64.344-37.149,64.344,37.149v74.3Z" transform="translate(118.117 269.849)" fill="#fdca0c" stroke="#c28e00" stroke-miterlimit="10" stroke-width="3"/>
      <path id="Caminho_5" data-name="Caminho 5" d="M545.567,411.631l-64.344-37.149v-74.3l64.344-37.149,64.344,37.149v74.3Z" transform="translate(17.288 234.926)" fill="#fdca0c" stroke="#c28e00" stroke-miterlimit="10" stroke-width="3"/>
      <g id="Componente_1_1" data-name="Componente 1 – 1" transform="translate(112 497.96)">
        <path id="Caminho_6" data-name="Caminho 6" d="M38.034,411.631l-64.344-37.149v-74.3l64.344-37.149,64.344,37.149v74.3Z" transform="translate(26.311 -263.034)" fill="#fdca0c" stroke="#c28e00" stroke-miterlimit="10" stroke-width="3"/>
      </g>
      <path id="Caminho_7" data-name="Caminho 7" d="M122.72,558.312,58.376,521.163v-74.3l64.344-37.149,64.344,37.149v74.3Z" transform="translate(118.117 199.95)" fill="#fdca0c" stroke="#c28e00" stroke-miterlimit="10" stroke-width="3"/>
      <path id="Caminho_8" data-name="Caminho 8" d="M291.963,558.312l-64.344-37.149v-74.3l64.344-37.149,64.344,37.149v74.3Z" transform="translate(77.761 199.95)" fill="#fdca0c" stroke="#c28e00" stroke-miterlimit="10" stroke-width="3"/>
      <path id="Caminho_9" data-name="Caminho 9" d="M461.205,558.312l-64.344-37.149v-74.3l64.344-37.149,64.344,37.149v74.3Z" transform="translate(37.404 199.95)" fill="#fdca0c" stroke="#c28e00" stroke-miterlimit="10" stroke-width="3"/>
      <path id="Caminho_11" data-name="Caminho 11" d="M461.205,558.312l-64.344-37.149v-74.3l64.344-37.149,64.344,37.149v74.3Z" transform="translate(166.404 199.95)" fill="#fdca0c" stroke="#c28e00" stroke-miterlimit="10" stroke-width="3"/>
      <path id="Caminho_13" data-name="Caminho 13" d="M461.205,558.312l-64.344-37.149v-74.3l64.344-37.149,64.344,37.149v74.3Z" transform="translate(101.404 313.95)" fill="#fdca0c" stroke="#c28e00" stroke-miterlimit="10" stroke-width="3"/>
      <path id="Caminho_14" data-name="Caminho 14" d="M461.205,558.312l-64.344-37.149v-74.3l64.344-37.149,64.344,37.149v74.3Z" transform="translate(-26.596 313.95)" fill="#fdca0c" stroke="#c28e00" stroke-miterlimit="10" stroke-width="3"/>
      <path id="Caminho_15" data-name="Caminho 15" d="M461.205,558.312l-64.344-37.149v-74.3l64.344-37.149,64.344,37.149v74.3Z" transform="translate(-156.596 313.95)" fill="#fdca0c" stroke="#c28e00" stroke-miterlimit="10" stroke-width="3"/>
      <path id="Caminho_16" data-name="Caminho 16" d="M461.205,558.312l-64.344-37.149v-74.3l64.344-37.149,64.344,37.149v74.3Z" transform="translate(-285.596 313.95)" fill="#fdca0c" stroke="#c28e00" stroke-miterlimit="10" stroke-width="3"/>
      <path id="Caminho_17" data-name="Caminho 17" d="M461.205,558.312l-64.344-37.149v-74.3l64.344-37.149,64.344,37.149v74.3Z" transform="translate(-220.596 425.95)" fill="#fdca0c" stroke="#c28e00" stroke-miterlimit="10" stroke-width="3"/>
      <path id="Caminho_18" data-name="Caminho 18" d="M461.205,558.312l-64.344-37.149v-74.3l64.344-37.149,64.344,37.149v74.3Z" transform="translate(-92.596 425.95)" fill="#fdca0c" stroke="#c28e00" stroke-miterlimit="10" stroke-width="3"/>
      <path id="Caminho_19" data-name="Caminho 19" d="M461.205,558.312l-64.344-37.149v-74.3l64.344-37.149,64.344,37.149v74.3Z" transform="translate(37.404 425.95)" fill="#fdca0c" stroke="#c28e00" stroke-miterlimit="10" stroke-width="3"/>
      <path id="Caminho_12" data-name="Caminho 12" d="M461.205,558.312l-64.344-37.149v-74.3l64.344-37.149,64.344,37.149v74.3Z" transform="translate(-349.596 199.95)" fill="#fdca0c" stroke="#c28e00" stroke-miterlimit="10" stroke-width="3"/>
      <path id="Caminho_10" data-name="Caminho 10" d="M271.556,373.75,207.212,410.9,142.867,373.75v-74.3L207.212,262.3l64.344,37.149Z" transform="translate(97.97 235.101)" fill="#fdca0c" stroke="#c28e00" stroke-miterlimit="10" stroke-width="3"/>
    </g>
    <text id="html5" transform="translate(332 1352)" fill="#fff" font-size="35" font-family="Poppins-Bold, Poppins" font-weight="700"><tspan x="-53.865" y="0">html5</tspan></text>
    <text id="GIT" transform="translate(532 1463)" fill="#fff" font-size="47" font-family="Poppins-Bold, Poppins" font-weight="700"><tspan x="-38.328" y="0">GIT</tspan></text>
    <text id="GitHub" transform="translate(657 1460)" fill="#fff" font-size="34" font-family="Poppins-Bold, Poppins" font-weight="700"><tspan x="-60.231" y="0">GitHub</tspan></text>
    <text id="IDEs" transform="translate(466 1356)" fill="#fff" font-size="47" font-family="Poppins-Bold, Poppins" font-weight="700"><tspan x="-49.679" y="0">IDEs</tspan></text>
    <text id="Lógica_de_programação" data-name="Lógica de 
programação" transform="translate(336 1557)" fill="#fff" font-size="16" font-family="Poppins-Bold, Poppins" font-weight="700"><tspan x="-40.584" y="0">Lógica de </tspan><tspan x="-57.68" y="25">programação</tspan></text>
    <text id="JS" transform="translate(396 1463)" fill="#fff" font-size="47" font-family="Poppins-Bold, Poppins" font-weight="700"><tspan x="-27.072" y="0">JS</tspan></text>
    <text id="React" transform="translate(201 1573)" fill="#fff" font-size="27" font-family="Poppins-Bold, Poppins" font-weight="700"><tspan x="-39.947" y="0">React</tspan></text>
    <text id="JAVA" transform="translate(332 1800)" fill="#fff" font-size="35" font-family="Poppins-Bold, Poppins" font-weight="700"><tspan x="-47.88" y="0">JAVA</tspan></text>
    <text id="C" transform="translate(724 1583)" fill="#fff" font-size="51" font-family="Poppins-Bold, Poppins" font-weight="700"><tspan x="-19.303" y="0">C</tspan></text>
    <text id="R" transform="translate(592 1808)" fill="#fff" font-size="51" font-family="Poppins-Bold, Poppins" font-weight="700"><tspan x="-16.218" y="0">R</tspan></text>
    <text id="GO" transform="translate(463 1810)" fill="#fff" font-size="51" font-family="Poppins-Bold, Poppins" font-weight="700"><tspan x="-39.55" y="0">GO</tspan></text>
    <text id="C_" data-name="C#" transform="translate(528 1699)" fill="#fff" font-size="51" font-family="Poppins-Bold, Poppins" font-weight="700"><tspan x="-41.896" y="0">C#</tspan></text>
    <text id="Ruby" transform="translate(660 1685)" fill="#fff" font-size="34" font-family="Poppins-Bold, Poppins" font-weight="700"><tspan x="-44.557" y="0">Ruby</tspan></text>
    <text id="PHP" transform="translate(397 1699)" fill="#fff" font-size="51" font-family="Poppins-Bold, Poppins" font-weight="700"><tspan x="-50.159" y="0">PHP</tspan></text>
    <text id="Phyton" transform="translate(462 1574)" fill="#fff" font-size="29" font-family="Poppins-Bold, Poppins" font-weight="700"><tspan x="-53.012" y="0">Phyton</tspan></text>
    <text id="C_2" data-name="C++" transform="translate(269 1703)" fill="#fff" font-size="51" font-family="Poppins-Bold, Poppins" font-weight="700"><tspan x="-47.915" y="0">C++</tspan></text>
    <text id="Scrum" transform="translate(595 1573)" fill="#fff" font-size="31" font-family="Poppins-Bold, Poppins" font-weight="700"><tspan x="-52.437" y="0">Scrum</tspan></text>
    <text id="CSS" transform="translate(592 1356)" fill="#fff" font-size="47" font-family="Poppins-Bold, Poppins" font-weight="700"><tspan x="-46.131" y="0">CSS</tspan></text>
    <text id="bootstrap" transform="translate(269 1454)" fill="#fff" font-size="22" font-family="Poppins-Bold, Poppins" font-weight="700"><tspan x="-56.386" y="0">bootstrap</tspan></text>
  </g>
</svg>
