<svg id="cadeado" xmlns="http://www.w3.org/2000/svg" width="73.45" height="101.32" viewBox="0 0 73.45 101.32">
  <g id="Camada_1" data-name="Camada 1" transform="translate(0)">
    <path id="Caminho_72" data-name="Caminho 72" d="M73.45,52.437a4.066,4.066,0,0,0-3.133-4.444c-.746-.266-1.479-.558-2.225-.817-1.3-.454-1.362-.506-1.362-1.9V30.257a30.017,30.017,0,0,0-1.155-8.68Q60.547,5.255,44.114.649A34.018,34.018,0,0,0,39.573,0h-.8c-.136.24-.266.208-.4,0H35.207c-.13.208-.259.24-.4,0H33.624c-1.051.253-2.147.156-3.2.389A29.44,29.44,0,0,0,13.773,10.523a29.693,29.693,0,0,0-6.929,19.41c-.039,5.067,0,10.14,0,15.206,0,1.538,0,1.557-1.427,2.056-.837.3-1.667.649-2.5.915A4.541,4.541,0,0,0,0,52.373C.058,65.114,0,77.855.032,90.6a4.336,4.336,0,0,0,3.2,4.638A85.4,85.4,0,0,0,31.593,101.2a124.677,124.677,0,0,0,15.57-.3,88.443,88.443,0,0,0,23.419-5.767A3.992,3.992,0,0,0,73.45,90.9ZM41.4,70.382a1.388,1.388,0,0,0-.649,1.3V84.226a3.97,3.97,0,0,1-6.092,3.322,3.659,3.659,0,0,1-1.836-3.211c-.032-2.141,0-4.282,0-6.423h0V71.491a1.1,1.1,0,0,0-.538-1.038A7.486,7.486,0,0,1,28.953,62.4a7.61,7.61,0,0,1,6.027-6.208,7.941,7.941,0,0,1,9.731,6.948,7.493,7.493,0,0,1-3.309,7.24ZM55.35,44.01a90.9,90.9,0,0,0-25.113-1.68,87.894,87.894,0,0,0-12,1.667c-.61.13-.856.117-.85-.649.032-4.872-.045-9.731.039-14.616.162-8.972,7.6-17.055,16.452-18.307a19.5,19.5,0,0,1,20.61,11.262,18.483,18.483,0,0,1,1.667,7.233c.045,2.3,0,4.606,0,6.916h0v7.506c.039.7-.156.772-.811.668Z" transform="translate(0)"/>
  </g>
</svg>
