<svg xmlns="http://www.w3.org/2000/svg" width="69.854" height="64.846" viewBox="0 0 69.854 64.846">
  <g id="chatNotificacao" transform="translate(-1803 -297.057)">
    <path id="Subtração_2" data-name="Subtração 2" d="M-7232.77-21.154h-.172a1.041,1.041,0,0,1-.942-.592,1.064,1.064,0,0,1,.194-1.231c2.125-2.176,3.571-6.608,4.07-12.482A22.977,22.977,0,0,1-7234-48.928c0-13.769,12.437-24.971,27.725-24.971s27.732,11.207,27.732,24.982-12.441,24.971-27.732,24.971l-.312,0A29.905,29.905,0,0,1-7217.5-26a42.129,42.129,0,0,1-9.849,3.757A43.163,43.163,0,0,1-7232.77-21.154Zm13.7-21.4a1.067,1.067,0,0,0-1.065,1.066,1.066,1.066,0,0,0,1.065,1.064h26.659a1.066,1.066,0,0,0,1.066-1.064,1.067,1.067,0,0,0-1.066-1.066Zm0-7.462a1.066,1.066,0,0,0-1.065,1.064,1.068,1.068,0,0,0,1.065,1.068h26.659a1.068,1.068,0,0,0,1.066-1.068,1.066,1.066,0,0,0-1.066-1.064Zm5.862-7.415a1.068,1.068,0,0,0-1.065,1.068,1.067,1.067,0,0,0,1.065,1.066h14.933a1.068,1.068,0,0,0,1.067-1.066,1.069,1.069,0,0,0-1.067-1.068Zm42.14,27.086h-.162a55.09,55.09,0,0,1-10.766-2.81A25.387,25.387,0,0,0-7176.41-48.9c0-14.96-13.4-27.131-29.866-27.131h-.074a32.311,32.311,0,0,0-13.6,3.023,29.056,29.056,0,0,1,21.981-10.05h.229a29.9,29.9,0,0,1,14.455,3.673,10.379,10.379,0,0,0-.718,3.81,10.44,10.44,0,0,0,10.428,10.428,10.486,10.486,0,0,0,2.318-.259,22.681,22.681,0,0,1,1.211,7.317,23.007,23.007,0,0,1-4.341,13.469c.543,5.945,1.989,10.371,4.07,12.464a1.042,1.042,0,0,1,.2,1.22A1.061,1.061,0,0,1-7171.065-30.341Z" transform="translate(9037 383.057)" fill="#fdca0c"/>
    <ellipse id="Elipse_30" data-name="Elipse 30" cx="9.428" cy="9.428" rx="9.428" ry="9.428" transform="translate(1853.998 297.057)" fill="#0414b0"/>
  </g>
</svg>
