<svg xmlns="http://www.w3.org/2000/svg" width="75.401" height="75.281" viewBox="0 0 75.401 75.281">
  <g id="configuracoes" transform="translate(-302.864 345.607)">
    <g id="Grupo_84" data-name="Grupo 84" transform="translate(-11 -221.17)">
      <path id="Caminho_156" data-name="Caminho 156" d="M347.007-124.437h8.765a1.4,1.4,0,0,0,0,.327c1.149,3.194,2.311,6.382,3.436,9.582a1.111,1.111,0,0,0,.8.7c1.555.641,3.121,1.252,4.664,1.93a1.325,1.325,0,0,0,1.258-.042c2.843-1.458,5.7-2.885,8.553-4.337a.7.7,0,0,1,.982.137l.016.021c1.694,1.73,3.393,3.454,5.142,5.13a.866.866,0,0,1,.175,1.21c-1.4,2.873-2.758,5.771-4.156,8.644a1.267,1.267,0,0,0,0,1.18c.665,1.542,1.319,3.1,1.936,4.664a1.209,1.209,0,0,0,.853.8c1.452.442,2.867.98,4.313,1.415,1.851.563,3.629,1.319,5.523,1.73v8.614c-3.266,1.18-6.539,2.359-9.818,3.514a1.136,1.136,0,0,0-.744.714c-.677,1.6-1.361,3.2-2.069,4.785a1.135,1.135,0,0,0,.036,1.095c1.482,2.867,2.916,5.753,4.4,8.614a.745.745,0,0,1-.147,1.042l-.022.016q-2.595,2.541-5.13,5.142a.829.829,0,0,1-1.143.169c-2.795-1.361-5.62-2.674-8.414-4.053a1.815,1.815,0,0,0-1.718-.036c-1.464.647-2.952,1.21-4.446,1.815a1.348,1.348,0,0,0-.883.986c-.956,3.025-1.966,6.049-2.916,9.074a.811.811,0,0,1-.918.688l-.026,0c-2.365,0-4.724-.036-7.089,0a.946.946,0,0,1-1.04-.78c-1.047-2.994-2.135-5.97-3.194-8.953a1.289,1.289,0,0,0-.859-.907c-1.512-.6-3.025-1.21-4.507-1.875a1.58,1.58,0,0,0-1.549.085c-2.8,1.422-5.62,2.813-8.408,4.234a.7.7,0,0,1-.983-.139l-.009-.013q-2.571-2.631-5.19-5.2a.762.762,0,0,1-.177-1.063h0c1.415-2.9,2.783-5.819,4.192-8.723a1.289,1.289,0,0,0,.036-1.18c-.647-1.494-1.27-3.025-1.863-4.513a1.575,1.575,0,0,0-1.083-.974c-3.025-.974-6.049-2.008-9.11-2.982a.7.7,0,0,1-.612-.782c0-.014,0-.027.007-.041,0-2.42.042-4.785,0-7.174,0-.641.242-.847.78-1.028,2.994-1.04,5.97-2.123,8.959-3.164a1.3,1.3,0,0,0,.871-.8q.907-2.316,1.893-4.585a1.49,1.49,0,0,0-.079-1.422c-1.422-2.77-2.795-5.565-4.234-8.336a.853.853,0,0,1,.152-1.2l.018-.013q2.577-2.492,5.075-5.069a.829.829,0,0,1,1.149-.2c2.873,1.4,5.765,2.764,8.638,4.168a1.391,1.391,0,0,0,1.264.036c1.555-.653,3.109-1.294,4.676-1.893a1.374,1.374,0,0,0,.9-.992c.641-2.063,1.355-4.1,1.978-6.164A21.5,21.5,0,0,0,347.007-124.437Zm20.705,37.649a16.145,16.145,0,0,0-16.168-16.121A16.144,16.144,0,0,0,335.423-86.74,16.145,16.145,0,0,0,351.58-70.619a16.157,16.157,0,0,0,16.133-16.169Z" transform="translate(0)" fill="#fdca0c"/>
    </g>
  </g>
</svg>
