<svg xmlns="http://www.w3.org/2000/svg" viewBox="0 0 61.47 59.55"><defs><style>.cls-1{fill:#ebc02e;}</style></defs><title>home</title><g id="Camada_2" data-name="Camada 2"><g id="Camada_1-2" data-name="Camada 1"><g id="a2889d33-42cc-41f0-88ec-ec050668376c"><g id="Caminho_118" data-name="Caminho 118"><path class="cls-1" d="M3,28.84a1.72,1.72,0,0,1-1.23-.52,6.43,6.43,0,0,1,0-8.86c1.44-1.63,5.83-4.78,7.63-6.05V2.32A1.69,1.69,0,0,1,11.07.63L17.7.56a1.62,1.62,0,0,1,1.21.49,1.66,1.66,0,0,1,.5,1.19V6.63L26.28,1.8a6.68,6.68,0,0,1,9.07,0c1.06.76,14.06,10.13,21.16,14.88,3.14,2.1,4.8,4.41,5,6.85a6.27,6.27,0,0,1-2.1,4.91,1.7,1.7,0,0,1-2,.1L33.56,12l-.19-.16a3.52,3.52,0,0,0-5,0l-.18.15L4,28.55A1.66,1.66,0,0,1,3,28.84ZM35.59,9.28l22.3,15.55a2.54,2.54,0,0,0,.2-1.13c-.1-1.31-1.29-2.77-3.45-4.22-7.42-5-21.19-14.9-21.33-15l-.14-.11a3.36,3.36,0,0,0-4.68,0l-.18.15-9.62,6.75A1.68,1.68,0,0,1,16,9.87V4L12.78,4v10.3a1.69,1.69,0,0,1-.73,1.39c-1.74,1.2-6.52,4.62-7.79,6.05a3.11,3.11,0,0,0-.75,3L26.24,9.27A6.82,6.82,0,0,1,35.59,9.28Zm-24.5,5h0Z"/></g><g id="Caminho_119" data-name="Caminho 119"><path class="cls-1" d="M12.52,59.55a5.6,5.6,0,0,1-4.45-1.93,8,8,0,0,1-1.63-5.25V23.47H9.81V52.55a4.18,4.18,0,0,0,.74,2.55,2.46,2.46,0,0,0,2,.74H48.78a3.64,3.64,0,0,0,3.55-3.66V24.09H55.7V52.18A7.12,7.12,0,0,1,49,59.54Z"/></g><g id="Caminho_120" data-name="Caminho 120"><polygon class="cls-1" points="43.1 57.87 39.72 57.87 39.72 38.2 30.14 38.2 30.14 57.21 26.76 57.21 26.76 34.83 43.1 34.83 43.1 57.87"/></g></g></g></g></svg>