<svg xmlns="http://www.w3.org/2000/svg" width="182.047" height="132" viewBox="0 0 182.047 132">
  <g id="Camada_2" data-name="Camada 2" transform="translate(0 -0.002)">
    <g id="Camada_1" data-name="Camada 1" transform="translate(0 0.002)">
      <path id="Caminho_57" data-name="Caminho 57" d="M109.155,70.693S79.814-17.331,40.291,3.589,44.369,56.4,44.369,56.4,89.35,73.246,109.155,70.693Z" transform="translate(45.885 0.717)" fill="#dfe2d2"/>
      <ellipse id="Elipse_5" data-name="Elipse 5" cx="87.379" cy="54.692" rx="87.379" ry="54.692" transform="translate(5.575 22.615)" fill="#ebc02e"/>
      <path id="Caminho_58" data-name="Caminho 58" d="M19.571,16.29a72.856,72.856,0,0,1-.587,8.392c-.176,7.013-.44,14.025-.557,21.038,0,8.509-.7,16.959-1.32,25.41a8.8,8.8,0,0,1-.323,1.467c-.734-.616-1.7-2.259-2.025-2.347a45.772,45.772,0,0,1-4.548-6.807A42.78,42.78,0,0,1,6.044,51.705a6.573,6.573,0,0,0-.176-1.584C5.076,47.715,2.083,46.834,0,45.045a44.89,44.89,0,0,1,5.692-2.113c.176,0,0-2.377.293-2.553C6.6,38,7.159,35.949,7.746,33.6A43.044,43.044,0,0,1,19.571,16.29Z" transform="translate(0 31.5)" fill="#221e1f"/>
      <path id="Caminho_59" data-name="Caminho 59" d="M51.179,24.378A79.016,79.016,0,0,0,51,40.4a6.1,6.1,0,0,1,0,3.169c-.293.734-.7,1.5-1.614,1.379s-.939-.939-1-1.672c-.469-6.4-1.408-12.764-1.262-19.219a2.348,2.348,0,0,0,0-.44,33.361,33.361,0,0,1,.7-5.868A17.312,17.312,0,0,1,58.691,6.216a6.162,6.162,0,0,1,7.1,2.406,6.572,6.572,0,0,1-1.408,8.04,5.868,5.868,0,0,1-7.834-.352c-.675-.675-.968-.557-1.7,0A9.3,9.3,0,0,0,51.179,24.378Z" transform="translate(91.127 11.382)" fill="#221e1f"/>
      <path id="Caminho_60" data-name="Caminho 60" d="M58.154,30.676A7.218,7.218,0,0,0,57.8,33.4a4.225,4.225,0,0,1-.939,2.67,1.115,1.115,0,0,1-1.232.411c-.557-.147-.616-.646-.587-1.115.147-1.878.323-3.756.5-5.634a101.078,101.078,0,0,1,1.966-13.262A14.319,14.319,0,0,1,69.245,5.853a5.105,5.105,0,0,1,5.516,2.142,4.929,4.929,0,0,1,0,5.487,5.076,5.076,0,0,1-8.216.557c-.646-.88-1.056-.88-1.937-.411a6.6,6.6,0,0,0-3.316,3.99,64.7,64.7,0,0,0-3.14,13.057Z" transform="translate(106.451 11.011)" fill="#221e1f"/>
      <path id="Caminho_61" data-name="Caminho 61" d="M66.116,27.973a4.959,4.959,0,0,1-5.076,5.252A4.607,4.607,0,0,1,56.11,28.56c.205-3.11,1.614-5.428,4.959-5.4a4.929,4.929,0,0,1,5.047,4.812Z" transform="translate(108.524 44.787)" fill="#231e1f"/>
      <path id="Caminho_62" data-name="Caminho 62" d="M53.8,27.925a4.988,4.988,0,0,1-5.164,5.223,4.665,4.665,0,0,1-4.841-4.665A5.017,5.017,0,0,1,48.753,23.2,4.959,4.959,0,0,1,53.8,27.925Z" transform="translate(84.692 44.864)" fill="#231e1f"/>
      <path id="Caminho_63" data-name="Caminho 63" d="M55.415,32.11a5.428,5.428,0,0,1-4.46-1.614,1.291,1.291,0,0,1-.235-1.79,1.232,1.232,0,0,1,1.672-.264,7.218,7.218,0,0,0,7.071.88c.352,0,.763,0,.91.323s-.205.646-.5.851A7.042,7.042,0,0,1,55.415,32.11Z" transform="translate(97.601 54.587)" fill="#25201f"/>
      <path id="Caminho_64" data-name="Caminho 64" d="M49.52,9.236l15.081,3.2L56.268,114.4l-23.238,2.67L44.18,7.71Z" transform="translate(63.885 14.905)" fill="#231e1f"/>
      <path id="Caminho_65" data-name="Caminho 65" d="M17.693,17.46,33.8,24.619,23.532,88.613,10.27,81.571Z" transform="translate(19.864 33.763)" fill="#040006"/>
      <path id="Caminho_66" data-name="Caminho 66" d="M32.535,21.02l16.02,1.819-9.8,67.808L20.74,87.537Z" transform="translate(40.114 40.649)" fill="#040006"/>
      <path id="Caminho_67" data-name="Caminho 67" d="M97.932,62.522S57.353-20.837,20.94,4.954,31.826,56.683,31.826,56.683,78.625,67.627,97.932,62.522Z" transform="translate(13.859 -0.002)" fill="#dfe2d2"/>
      <path id="Caminho_68" data-name="Caminho 68" d="M41.689,45.128a14.23,14.23,0,0,1-5.164-.675c-.5-.205-1.467,0-1.291-.939s.939-.44,1.5-.411a31.982,31.982,0,0,0,4.108,0,10.68,10.68,0,0,0,5.017-1.584,3.668,3.668,0,0,1,2.7-.763,1.289,1.289,0,0,1,1.262.734c.205.528-.176.968-.5,1.35a5.545,5.545,0,0,1-2.171,1.408,13.086,13.086,0,0,1-5.458.88Z" transform="translate(68.107 78.773)" fill="#edca2c"/>
      <path id="Caminho_69" data-name="Caminho 69" d="M39.111,43.758a9.8,9.8,0,0,1-3.316-.528.592.592,0,0,1-.587-.734c.088-.469.44-.381.734-.411L38.2,41.85a5.516,5.516,0,0,0,4.049-2.142,6.1,6.1,0,0,1,1-.939,1.408,1.408,0,0,1,1.819,0,1.262,1.262,0,0,1,.293,1.672,5.868,5.868,0,0,1-4.871,3.2A8.362,8.362,0,0,1,39.111,43.758Z" transform="translate(68.073 74.335)" fill="#ecc92c"/>
      <path id="Caminho_70" data-name="Caminho 70" d="M12.26,36.25a10.944,10.944,0,0,0,5.868,2.2.763.763,0,0,1,.792.939c-.147.5-.7.557-1.144.5A6.719,6.719,0,0,1,12.26,36.25Z" transform="translate(23.713 70.106)" fill="#e7c52a"/>
      <path id="Caminho_71" data-name="Caminho 71" d="M12.76,35.48a5.868,5.868,0,0,0,4.313.7.587.587,0,0,1,.734.587c0,.557-.352.792-.792.939a3.873,3.873,0,0,1-4.255-2.23Z" transform="translate(24.68 68.616)" fill="#e8c62b"/>
    </g>
  </g>
</svg>
