<svg id="areaDoAluno" xmlns="http://www.w3.org/2000/svg" width="75" height="54.849" viewBox="0 0 75 54.849">
  <path id="Caminho_284" data-name="Caminho 284" d="M75,53.92a2.094,2.094,0,0,1-1.985.913H1.985C.387,54.833,0,54.456,0,52.848V8.823C0,7.314.407,6.947,1.886,6.947H4.158c.407,0,.556-.089.536-.516V3.94a1.419,1.419,0,0,1,1.33-1.568L17.5,1.042c2.61-.3,5.23-.615,7.84-.9A21.963,21.963,0,0,1,36.88,1.985a1.34,1.34,0,0,0,1.211,0A23.2,23.2,0,0,1,50.943.258c3.533.476,7.066.824,10.6,1.241,2.5.288,4.962.576,7.483.883a1.38,1.38,0,0,1,1.28,1.5c0,.784,0,1.568,0,2.342,0,.516.069.744.655.695s1.37,0,2.054,0A1.985,1.985,0,0,1,75,7.811ZM7.463,25.506V45.355c0,.615.149.7.724.6.992-.179,1.985-.248,3.047-.367l9.359-1.092c1.985-.228,3.97-.516,5.955-.635A21.417,21.417,0,0,1,35.48,45.2c.586.228.685.079.665-.486V5.468a.992.992,0,0,0-.7-1.121,20.4,20.4,0,0,0-7.672-1.538,53.265,53.265,0,0,0-6.034.566c-4.575.526-9.1,1.082-13.626,1.588-.625.069-.655.308-.655.794C7.473,12.326,7.463,18.916,7.463,25.506Zm60.073,0v-20c0-.238.139-.516-.328-.566-2.471-.268-4.962-.576-7.4-.863-3.106-.328-6.213-.645-9.289-1.1A20.633,20.633,0,0,0,39.6,4.317a.9.9,0,0,0-.675.992V44.551c0,.8,0,.8.774.536A21.834,21.834,0,0,1,49.623,43.9l7.83.893c3.126.357,6.252.695,9.359,1.1.665.089.754,0,.754-.645-.079-6.54-.03-13.13-.03-19.72ZM37.455,52.025H71.437c.615,0,.8-.119.794-.784V10.669c0-.992,0-.992-1.052-.992-.685,0-.873.119-.873.854V46.923a7.245,7.245,0,0,1,0,.8,1.3,1.3,0,0,1-1.3,1.231,7.941,7.941,0,0,1-1.092-.06l-6.828-.824c-3.523-.437-7.076-.764-10.609-1.241a20.058,20.058,0,0,0-11.771,1.727,2.541,2.541,0,0,1-2.481,0,18.41,18.41,0,0,0-8.744-1.985c-3.434.079-6.828.695-10.242,1.062s-7.017.854-10.53,1.241c-1.578.179-2.064-.318-2.064-1.915V10.609a4.476,4.476,0,0,1,0-.516c0-.318-.079-.447-.407-.417a2.412,2.412,0,0,1-.655,0c-.715-.129-.863.149-.863.854V51.221c0,.625.119.794.774.794Q20.5,52.015,37.455,52.025Z" transform="translate(0 0.001)" fill="#fff"/>
  <path id="Caminho_285" data-name="Caminho 285" d="M33.229,23.523c-1.062-.119-2.084-.437-3.156-.556a26.082,26.082,0,0,0-5.836.1l-9.428,1.121-3.186.377c-.218,0-.437.06-.655.06a1.439,1.439,0,0,1-1.489-1.31,1.419,1.419,0,0,1,1.27-1.459c1.588-.208,3.186-.4,4.784-.586,3.166-.367,6.332-.754,9.5-1.092a22.827,22.827,0,0,1,8.476.6,1.36,1.36,0,0,1,1.151,1.667,1.33,1.33,0,0,1-1.429,1.082Z" transform="translate(-0.071 -0.15)" fill="#fff"/>
  <path id="Caminho_286" data-name="Caminho 286" d="M27.712,7.26a24.533,24.533,0,0,1,5.647.734c.992.248,1.5.893,1.29,1.767a1.449,1.449,0,0,1-1.925.992,19.66,19.66,0,0,0-4.962-.645,61.79,61.79,0,0,0-6.61.635c-3.364.387-6.719.8-10.083,1.181A1.429,1.429,0,0,1,9.51,10.694a1.34,1.34,0,0,1,1.112-1.489c1.489-.238,2.977-.4,4.486-.576,3.176-.377,6.342-.764,9.508-1.112a21.2,21.2,0,0,1,3.1-.258Z" transform="translate(-0.072 -0.053)" fill="#fff"/>
  <path id="Caminho_287" data-name="Caminho 287" d="M28.664,13.68a22.826,22.826,0,0,1,4.545.645c1.141.278,1.647.863,1.439,1.786s-.992,1.211-2.054.943a21.308,21.308,0,0,0-4.039-.576,35.54,35.54,0,0,0-5.9.407c-3.116.357-6.233.734-9.349,1.1l-2.035.248a1.509,1.509,0,0,1-1.786-1.2,1.4,1.4,0,0,1,1.31-1.548c2.342-.308,4.694-.576,7.037-.854s4.545-.536,6.818-.784a21.12,21.12,0,0,1,4.01-.169Z" transform="translate(-0.072 -0.102)" fill="#fff"/>
  <path id="Caminho_288" data-name="Caminho 288" d="M33.081,36.283c-.992-.2-2.124-.457-3.265-.6a26,26,0,0,0-6.332.228c-3.176.357-6.342.744-9.508,1.112-.913.109-1.836.228-2.759.308A1.419,1.419,0,0,1,9.48,36.1a1.489,1.489,0,0,1,1.449-1.538c2.074-.258,4.158-.5,6.233-.734,2.908-.328,5.806-.675,8.714-.992a22.211,22.211,0,0,1,7.751.685,1.36,1.36,0,0,1,.992,1.618A1.4,1.4,0,0,1,33.081,36.283Z" transform="translate(-0.071 -0.246)" fill="#fff"/>
  <path id="Caminho_289" data-name="Caminho 289" d="M27.652,26.38a22.826,22.826,0,0,1,5.846.774,1.381,1.381,0,0,1-.536,2.709,20.961,20.961,0,0,0-6.52-.625c-2.332.2-4.645.5-6.947.774l-8.079.953a2.322,2.322,0,0,1-.992,0,1.28,1.28,0,0,1-.913-1.28,1.231,1.231,0,0,1,.992-1.29c.873-.189,1.767-.3,2.66-.407L25.28,26.6A20.855,20.855,0,0,1,27.652,26.38Z" transform="translate(-0.072 -0.198)" fill="#fff"/>
  <path id="Caminho_290" data-name="Caminho 290" d="M46.654,13.65a42.259,42.259,0,0,1,6.391.466q4.684.536,9.359,1.1c.744.089,1.5.159,2.243.288a1.33,1.33,0,0,1,1.161,1.588,1.38,1.38,0,0,1-1.528,1.161c-2.62-.3-5.22-.655-7.84-.913-3.315-.337-6.6-.992-9.925-.854a20.743,20.743,0,0,0-3.672.536,4.963,4.963,0,0,1-.655.1,1.37,1.37,0,0,1-1.509-1.072,1.35,1.35,0,0,1,.992-1.588,18.053,18.053,0,0,1,2.412-.546C44.967,13.779,45.96,13.719,46.654,13.65Z" transform="translate(-0.307 -0.102)" fill="#fff"/>
  <path id="Caminho_291" data-name="Caminho 291" d="M47.379,7.26a68.611,68.611,0,0,1,7.126.645c3.176.357,6.332.754,9.508,1.1,1.151.129,1.717.526,1.786,1.35a1.36,1.36,0,0,1-1.538,1.518c-2.977-.328-5.9-.724-8.853-.992-3.285-.337-6.55-1.052-9.925-.665a23.889,23.889,0,0,0-2.977.546,1.449,1.449,0,0,1-1.588-.466,1.31,1.31,0,0,1-.169-1.439,1.5,1.5,0,0,1,1.072-.863,24.4,24.4,0,0,1,5.558-.734Z" transform="translate(-0.306 -0.053)" fill="#fff"/>
  <path id="Caminho_292" data-name="Caminho 292" d="M47.19,26.42a48.927,48.927,0,0,1,6.6.536c3.116.357,6.243.724,9.359,1.1a11.056,11.056,0,0,1,1.717.278,1.35,1.35,0,0,1-.4,2.63c-1.6-.129-3.186-.347-4.794-.5-4.307-.407-8.575-1.28-12.9-1.25a22.033,22.033,0,0,0-4.258.615,1.439,1.439,0,0,1-1.856-1.042,1.409,1.409,0,0,1,1.2-1.638,19.363,19.363,0,0,1,5.33-.734Z" transform="translate(-0.307 -0.198)" fill="#fff"/>
  <path id="Caminho_293" data-name="Caminho 293" d="M46.684,20.06a43.738,43.738,0,0,1,7.334.546c3.116.347,6.233.734,9.359,1.1.407.05.824.079,1.231.149a1.4,1.4,0,0,1,1.2,1.558,1.34,1.34,0,0,1-1.489,1.2c-1.479-.129-2.977-.367-4.426-.5-4.436-.417-8.823-1.35-13.3-1.26a17.794,17.794,0,0,0-3.682.516,5.647,5.647,0,0,1-.715.119A1.389,1.389,0,0,1,40.63,22.4a1.35,1.35,0,0,1,.933-1.548,23.115,23.115,0,0,1,2.709-.586A12.058,12.058,0,0,1,46.684,20.06Z" transform="translate(-0.306 -0.15)" fill="#fff"/>
  <path id="Caminho_294" data-name="Caminho 294" d="M47.13,32.78a62.656,62.656,0,0,1,7.543.655c3.176.337,6.332.744,9.508,1.112a2.084,2.084,0,0,1,1.151.387,1.33,1.33,0,0,1,.377,1.588,1.31,1.31,0,0,1-1.469.834L59.377,36.8c-3.632-.407-7.255-.863-10.917-1.211a18.44,18.44,0,0,0-5.955.615,1.449,1.449,0,0,1-1.925-1.052c-.159-.754.347-1.409,1.28-1.647A20.941,20.941,0,0,1,47.13,32.78Z" transform="translate(-0.306 -0.246)" fill="#fff"/>
</svg>
