<svg xmlns="http://www.w3.org/2000/svg" width="60" height="58" viewBox="0 0 60 58">
  <g id="chat" transform="translate(0)">
    <g id="chat-2" data-name="chat" transform="translate(0 -1)" opacity="0.5">
      <path id="Caminho_127" data-name="Caminho 127" d="M19.5,27h14a1,1,0,0,0,0-2h-14a1,1,0,0,0,0,2Z" fill="#fff"/>
      <path id="Caminho_128" data-name="Caminho 128" d="M39,32H14a1,1,0,0,0,0,2H39a1,1,0,0,0,0-2Z" fill="#fff"/>
      <path id="Caminho_129" data-name="Caminho 129" d="M39,39H14a1,1,0,0,0,0,2H39a1,1,0,0,0,0-2Z" fill="#fff"/>
      <path id="Caminho_130" data-name="Caminho 130" d="M55.894,37.041A21.647,21.647,0,0,0,60,24.414C60,11.5,48.337,1,34,1,24.129,1,15,6.142,10.656,14.114,4.2,18.379,0,25.255,0,33A21.649,21.649,0,0,0,4.106,45.627C3.6,51.2,2.246,55.34.293,57.293A1,1,0,0,0,1,59a.929.929,0,0,0,.139-.01c.35-.049,8.433-1.213,14.317-4.586A28.211,28.211,0,0,0,26,56.414a27.007,27.007,0,0,0,20.848-9.44A50.35,50.35,0,0,0,58.86,50.4a.951.951,0,0,0,.14.01,1,1,0,0,0,.707-1.707C57.754,46.754,56.4,42.619,55.894,37.041ZM26,54.414a26.323,26.323,0,0,1-8.364-1.349c3.334-2.09,3.338-2.255,3.335-2.82a1.018,1.018,0,0,0-.488-.86,1,1,0,0,0-1.328.271c-.492.385-2.5,1.673-4.294,2.778h0A39.642,39.642,0,0,1,3.3,56.562c1.8-3.174,2.535-7.623,2.83-11.136a1,1,0,0,0-.192-.678A19.692,19.692,0,0,1,2,33c0-7.219,4.028-13.61,10.18-17.491q.582-.367,1.182-.7c.09-.05.179-.1.271-.151.42-.227.849-.437,1.282-.639q.237-.111.475-.218c.44-.195.885-.379,1.336-.548.157-.059.317-.112.476-.168q.536-.189,1.08-.354c.166-.05.33-.1.5-.151.471-.133.946-.251,1.426-.357.166-.037.334-.07.5-.1.432-.087.866-.165,1.3-.23.1-.015.2-.034.3-.048.528-.073,1.061-.126,1.6-.167.139-.011.279-.02.419-.029.555-.034,1.113-.058,1.674-.058,10.752,0,19.876,6.342,22.919,15.053A19.256,19.256,0,0,1,50,33c0,.484-.025.964-.061,1.443-.009.124-.02.248-.032.372-.042.446-.1.89-.169,1.33-.006.034-.009.068-.015.1-.078.459-.18.914-.292,1.367-.033.133-.068.266-.1.4-.109.406-.23.81-.366,1.21-.029.084-.057.168-.087.252-.14.4-.3.785-.463,1.171q-.092.213-.188.425c-.186.406-.381.809-.6,1.205-.05.092-.1.181-.156.272q-.278.5-.586.979c-.085.133-.169.267-.257.4-.248.371-.506.737-.78,1.1A24.891,24.891,0,0,1,26,54.414Zm22.094-9.071c.042-.06.076-.123.117-.184.233-.343.456-.693.669-1.047.119-.2.23-.4.343-.6.124-.222.245-.445.362-.671.1-.2.21-.407.308-.612.152-.319.295-.641.432-.967.1-.229.186-.46.274-.691.109-.286.213-.573.31-.863q.093-.282.179-.565c.1-.316.182-.635.263-.957.035-.14.075-.278.108-.419.1-.45.191-.9.265-1.364.023-.141.04-.283.06-.424q.076-.534.125-1.076c.013-.145.027-.289.037-.434.031-.487.054-.975.054-1.468C52,20.09,40.337,9.586,26,9.586c-.479,0-.955.014-1.428.037-.171.008-.341.024-.512.035-.3.02-.595.04-.89.069-.212.021-.423.047-.634.073-.248.03-.5.06-.74.1s-.469.073-.7.113q-.319.055-.636.117c-.254.05-.508.1-.76.158-.178.04-.354.084-.53.127-.275.068-.551.135-.823.211-.122.034-.242.072-.363.108a27.383,27.383,0,0,0-3.055,1.091c-.076.032-.152.062-.228.1s-.182.073-.272.113A25.124,25.124,0,0,1,34,3c13.234,0,24,9.606,24,21.414a19.7,19.7,0,0,1-3.939,11.749,1,1,0,0,0-.192.678c.295,3.513,1.032,7.96,2.829,11.134A46.681,46.681,0,0,1,48.094,45.343Z" fill="#fff"/>
    </g>
  </g>
</svg>
