<svg xmlns="http://www.w3.org/2000/svg" width="60.92" height="71.297" viewBox="0 0 60.92 71.297">
  <g id="emblema-premium" transform="translate(-26.929)" opacity="0.5">
    <g id="Layer_5_21_" transform="translate(26.93)">
      <g id="Grupo_10" data-name="Grupo 10">
        <path id="Caminho_121" data-name="Caminho 121" d="M87.571,60.579l-9.333-16.04c1.615-.493,3.335-.928,4.05-2.162,1.191-2.057-.929-5.43-.372-7.635.574-2.269,3.96-4.232,3.96-6.538,0-2.247-3.5-4.872-4.075-7.127-.561-2.2,1.554-5.581.358-7.635s-5.176-1.886-6.815-3.462c-1.686-1.623-1.681-5.593-3.715-6.68S66.27,4.414,64,3.891C61.761,3.375,59.759,0,57.418,0c-2.376,0-6.155,3.828-6.747,3.966-2.266.527-5.589-1.674-7.629-.578s-2.019,5.062-3.7,6.687c-1.636,1.58-5.617,1.418-6.809,3.475s.929,5.429.373,7.635-4.062,4.452-4.062,7.009c0,2.306,3.395,4.263,3.972,6.531.561,2.2-1.553,5.581-.358,7.636.651,1.118,2.127,1.578,3.6,2.019.172.051.5.244.277.565L27.206,60.7a1.3,1.3,0,0,0,1.165,2.124l6.3.263a5.013,5.013,0,0,1,3.587,2.078l3.36,5.332a1.3,1.3,0,0,0,2.422-.045s9.4-16.232,9.406-16.237c.189-.22.378-.175.469-.1a6.508,6.508,0,0,0,3.66,1.75,5.631,5.631,0,0,0,3.336-1.74c.087-.075.3-.227.456.09l9.394,16.148a1.3,1.3,0,0,0,2.422.041l3.351-5.338a5.013,5.013,0,0,1,3.583-2.085l6.3-.274A1.3,1.3,0,0,0,87.571,60.579Zm-19.747-14.6a20.869,20.869,0,1,1-.418-36.385l.155.087.22.124a20.908,20.908,0,0,1,.043,36.175Z" transform="translate(-26.93)" fill="#fff"/>
        <path id="Caminho_122" data-name="Caminho 122" d="M119.8,55.92l-.087-.049A17.594,17.594,0,0,0,101.543,86c.2.127.4.251.61.371A17.6,17.6,0,0,0,119.8,55.92Zm2.1,13.726-2.94,2.866a4.939,4.939,0,0,0-1.265,3.893l.694,4.046c.215,1.253-.53,1.795-1.655,1.2L113.1,79.744a4.941,4.941,0,0,0-4.093,0l-3.634,1.911c-1.126.592-1.871.05-1.656-1.2l.694-4.046a4.94,4.94,0,0,0-1.265-3.893l-2.94-2.866c-.911-.887-.626-1.763.632-1.946l4.063-.59A4.941,4.941,0,0,0,108.21,64.7l1.817-3.681c.563-1.14,1.484-1.14,2.046,0L113.89,64.7A4.94,4.94,0,0,0,117.2,67.11l4.063.59C122.522,67.883,122.807,68.759,121.9,69.647Z" transform="translate(-80.493 -43.184)" fill="#fff"/>
      </g>
    </g>
  </g>
</svg>
