<svg xmlns="http://www.w3.org/2000/svg" width="1098.69" height="265.064" viewBox="0 0 1098.69 265.064">
  <g id="Grupo_1" data-name="Grupo 1" transform="translate(-205.5 -356.268)">
    <g id="Camada_2" data-name="Camada 2" transform="translate(326.5 182.27)">
      <g id="Camada_1" data-name="Camada 1" transform="translate(9.5 175.73)">
        <path id="Caminho_2" data-name="Caminho 2" d="M65.845,150.33,1.5,113.182v-74.3L65.845,1.73,130.19,38.878v74.3Z" transform="translate(-1.5 -1.73)" fill="#ffc000" stroke="#c28e00" stroke-miterlimit="10" stroke-width="3"/>
      </g>
    </g>
    <g id="Camada_2-2" data-name="Camada 2" transform="translate(455.5 182.27)">
      <g id="Camada_1-2" data-name="Camada 1" transform="translate(9.5 175.73)">
        <path id="Caminho_2-2" data-name="Caminho 2" d="M65.845,150.33,1.5,113.182v-74.3L65.845,1.73,130.19,38.878v74.3Z" transform="translate(-1.5 -1.73)" fill="#ffc000" stroke="#c28e00" stroke-miterlimit="10" stroke-width="3"/>
      </g>
    </g>
    <g id="Camada_2-3" data-name="Camada 2" transform="translate(584.5 182.27)">
      <g id="Camada_1-3" data-name="Camada 1" transform="translate(9.5 175.73)">
        <path id="Caminho_2-3" data-name="Caminho 2" d="M65.845,150.33,1.5,113.182v-74.3L65.845,1.73,130.19,38.878v74.3Z" transform="translate(-1.5 -1.73)" fill="#ffc000" stroke="#c28e00" stroke-miterlimit="10" stroke-width="3"/>
      </g>
    </g>
    <g id="Camada_2-4" data-name="Camada 2" transform="translate(713.5 182.27)">
      <g id="Camada_1-4" data-name="Camada 1" transform="translate(9.5 175.73)">
        <path id="Caminho_2-4" data-name="Caminho 2" d="M65.845,150.33,1.5,113.182v-74.3L65.845,1.73,130.19,38.878v74.3Z" transform="translate(-1.5 -1.73)" fill="#ffc000" stroke="#c28e00" stroke-miterlimit="10" stroke-width="3"/>
      </g>
    </g>
    <g id="Camada_2-5" data-name="Camada 2" transform="translate(842.5 182.27)">
      <g id="Camada_1-5" data-name="Camada 1" transform="translate(9.5 175.73)">
        <path id="Caminho_2-5" data-name="Caminho 2" d="M65.845,150.33,1.5,113.182v-74.3L65.845,1.73,130.19,38.878v74.3Z" transform="translate(-1.5 -1.73)" fill="#ffc000" stroke="#c28e00" stroke-miterlimit="10" stroke-width="3"/>
      </g>
    </g>
    <g id="Camada_2-6" data-name="Camada 2" transform="translate(971.5 182.27)">
      <g id="Camada_1-6" data-name="Camada 1" transform="translate(9.5 175.73)">
        <path id="Caminho_2-6" data-name="Caminho 2" d="M65.845,150.33,1.5,113.182v-74.3L65.845,1.73,130.19,38.878v74.3Z" transform="translate(-1.5 -1.73)" fill="#ffc000" stroke="#c28e00" stroke-miterlimit="10" stroke-width="3"/>
      </g>
    </g>
    <g id="Camada_2-7" data-name="Camada 2" transform="translate(1100.5 182.27)">
      <g id="Camada_1-7" data-name="Camada 1" transform="translate(9.5 175.73)">
        <path id="Caminho_2-7" data-name="Caminho 2" d="M65.845,150.33,1.5,113.182v-74.3L65.845,1.73,130.19,38.878v74.3Z" transform="translate(-1.5 -1.73)" fill="#ffc000" stroke="#c28e00" stroke-miterlimit="10" stroke-width="3"/>
      </g>
    </g>
    <g id="Camada_2-8" data-name="Camada 2" transform="translate(197.5 182.27)">
      <g id="Camada_1-8" data-name="Camada 1" transform="translate(9.5 175.73)">
        <path id="Caminho_2-8" data-name="Caminho 2" d="M65.845,150.33,1.5,113.182v-74.3L65.845,1.73,130.19,38.878v74.3Z" transform="translate(-1.5 -1.73)" fill="#ffc000" stroke="#c28e00" stroke-miterlimit="10" stroke-width="3"/>
      </g>
    </g>
    <g id="Camada_2-9" data-name="Camada 2" transform="translate(262.5 295.27)">
      <g id="Camada_1-9" data-name="Camada 1" transform="translate(9.5 175.73)">
        <path id="Caminho_2-9" data-name="Caminho 2" d="M65.845,150.33,1.5,113.182v-74.3L65.845,1.73,130.19,38.878v74.3Z" transform="translate(-1.5 -1.73)" fill="#ffc000" stroke="#c28e00" stroke-miterlimit="10" stroke-width="3"/>
      </g>
    </g>
    <g id="Camada_2-10" data-name="Camada 2" transform="translate(390.5 295.27)">
      <g id="Camada_1-10" data-name="Camada 1" transform="translate(9.5 175.73)">
        <path id="Caminho_2-10" data-name="Caminho 2" d="M65.845,150.33,1.5,113.182v-74.3L65.845,1.73,130.19,38.878v74.3Z" transform="translate(-1.5 -1.73)" fill="#ffc000" stroke="#c28e00" stroke-miterlimit="10" stroke-width="3"/>
      </g>
    </g>
    <g id="Camada_2-11" data-name="Camada 2" transform="translate(520.5 295.27)">
      <g id="Camada_1-11" data-name="Camada 1" transform="translate(9.5 175.73)">
        <path id="Caminho_2-11" data-name="Caminho 2" d="M65.845,150.33,1.5,113.182v-74.3L65.845,1.73,130.19,38.878v74.3Z" transform="translate(-1.5 -1.73)" fill="#ffc000" stroke="#c28e00" stroke-miterlimit="10" stroke-width="3"/>
      </g>
    </g>
    <g id="Camada_2-12" data-name="Camada 2" transform="translate(648.5 295.27)">
      <g id="Camada_1-12" data-name="Camada 1" transform="translate(9.5 175.73)">
        <path id="Caminho_2-12" data-name="Caminho 2" d="M65.845,150.33,1.5,113.182v-74.3L65.845,1.73,130.19,38.878v74.3Z" transform="translate(-1.5 -1.73)" fill="#ffc000" stroke="#c28e00" stroke-miterlimit="10" stroke-width="3"/>
      </g>
    </g>
    <g id="Camada_2-13" data-name="Camada 2" transform="translate(778.5 295.27)">
      <g id="Camada_1-13" data-name="Camada 1" transform="translate(9.5 175.73)">
        <path id="Caminho_2-13" data-name="Caminho 2" d="M65.845,150.33,1.5,113.182v-74.3L65.845,1.73,130.19,38.878v74.3Z" transform="translate(-1.5 -1.73)" fill="#ffc000" stroke="#c28e00" stroke-miterlimit="10" stroke-width="3"/>
      </g>
    </g>
    <g id="Camada_2-14" data-name="Camada 2" transform="translate(906.5 295.27)">
      <g id="Camada_1-14" data-name="Camada 1" transform="translate(9.5 175.73)">
        <path id="Caminho_2-14" data-name="Caminho 2" d="M65.845,150.33,1.5,113.182v-74.3L65.845,1.73,130.19,38.878v74.3Z" transform="translate(-1.5 -1.73)" fill="#ffc000" stroke="#c28e00" stroke-miterlimit="10" stroke-width="3"/>
      </g>
    </g>
    <g id="Camada_2-15" data-name="Camada 2" transform="translate(1036.5 295.27)">
      <g id="Camada_1-15" data-name="Camada 1" transform="translate(9.5 175.73)">
        <path id="Caminho_2-15" data-name="Caminho 2" d="M65.845,150.33,1.5,113.182v-74.3L65.845,1.73,130.19,38.878v74.3Z" transform="translate(-1.5 -1.73)" fill="#ffc000" stroke="#c28e00" stroke-miterlimit="10" stroke-width="3"/>
      </g>
    </g>
    <g id="Camada_2-16" data-name="Camada 2" transform="translate(1164.5 295.27)">
      <g id="Camada_1-16" data-name="Camada 1" transform="translate(9.5 175.73)">
        <path id="Caminho_2-16" data-name="Caminho 2" d="M65.845,150.33,1.5,113.182v-74.3L65.845,1.73,130.19,38.878v74.3Z" transform="translate(-1.5 -1.73)" fill="#ffc000" stroke="#c28e00" stroke-miterlimit="10" stroke-width="3"/>
      </g>
    </g>
  </g>
</svg>
