<svg xmlns="http://www.w3.org/2000/svg" width="57.253" height="79.468" viewBox="0 0 57.253 79.468">
  <g id="fechar" transform="translate(-13.472 23.216)">
    <path id="Caminho_168" data-name="Caminho 168" d="M40.514,4.06l34.1,3.413c3.162.316,5.982,3.433,6.3,6.96s-1.99,6.131-5.153,5.814L7.444,13.41a6.909,6.909,0,0,1-5.7-3.523,7.14,7.14,0,0,1-.606-6.752A4.526,4.526,0,0,1,6.3.7Q23.415,2.324,40.514,4.06Z" transform="translate(12.698 46.589) rotate(-60)" fill="#ebc02e"/>
    <path id="Caminho_170" data-name="Caminho 170" d="M39.364,8.752l34.1-3.413c3.162-.316,5.982-3.433,6.3-6.96s-1.99-6.131-5.153-5.814L6.294-.6A6.909,6.909,0,0,0,.6,2.924,7.14,7.14,0,0,0-.011,9.677a4.526,4.526,0,0,0,5.165,2.435Q22.266,10.488,39.364,8.752Z" transform="translate(59.83 52) rotate(-120)" fill="#ebc02e"/>
  </g>
</svg>
