<svg xmlns="http://www.w3.org/2000/svg" width="84.6" height="95.044" viewBox="0 0 84.6 95.044">
  <g id="html" transform="translate(-2.749 -2.356)">
    <path id="Caminho_55" data-name="Caminho 55" d="M86.409,3.8a3.478,3.478,0,0,0-2.683-1.4c-9.569-.1-66.087,0-77.355,0A3.226,3.226,0,0,0,3.689,3.8,4.083,4.083,0,0,0,2.795,7L9.681,85.4a3.732,3.732,0,0,0,2.593,3.4l30.674,8.4a11.975,11.975,0,0,0,1.878.2,13.121,13.121,0,0,0,1.967-.2l30.674-8.4a3.621,3.621,0,0,0,2.593-3.3L87.3,7A4.193,4.193,0,0,0,86.409,3.8Zm-11.178,80L45.63,92a4.349,4.349,0,0,1-1.61,0l-29.6-8.2L7.713,8C20.948,8,70.133,7.9,82.3,8Z" transform="translate(0)" fill="#fff"/>
    <path id="Caminho_56" data-name="Caminho 56" d="M21.653,20.3a4.37,4.37,0,0,0-.664,3.1L23.81,43a3.342,3.342,0,0,0,3.069,3.1H62.713l-2.9,20.2L45.957,72.5,32.022,66.3,30.2,55.3c-.249-1.5-1.41-2.5-2.654-2.2a2.739,2.739,0,0,0-1.825,3.2l2.323,14,17.917,7.9,17.917-8L67.69,43.7v-.4h0v-.5c0-.1-.083-.2-.083-.3s0-.2-.083-.2c0-.1-.083-.1-.083-.2a.375.375,0,0,0-.083-.2c0-.1-.083-.1-.166-.2l-.166-.2-.166-.2-.166-.2a.239.239,0,0,0-.166-.1c-.083,0-.166-.1-.249-.1s-.083,0-.166-.1c-.083,0-.166-.1-.249-.1H28.123L25.8,24.6H67.275A2.587,2.587,0,0,0,69.6,21.8,2.587,2.587,0,0,0,67.275,19H24.059A3.18,3.18,0,0,0,21.653,20.3Z" transform="translate(0)" fill="#fff"/>
  </g>
</svg>
