<svg xmlns="http://www.w3.org/2000/svg" width="143.423" height="174.172" viewBox="0 0 143.423 174.172">
  <g id="Grupo_41" data-name="Grupo 41" transform="translate(-616.428 -814.383)">
    <g id="Grupo_34" data-name="Grupo 34" transform="translate(616.428 814.383)">
      <path id="Caminho_149" data-name="Caminho 149" d="M629.052,832.727s39.414,10.892,64.664-6.871c0,0,36.826,16.745,68.234,7.281,0,0,16.753,122.758-67.31,159.709C694.639,992.846,610.577,968.213,629.052,832.727Z" transform="translate(-623.158 -822.127)" fill="#fdca0c"/>
      <path id="Caminho_150" data-name="Caminho 150" d="M688.133,988.555,687,988.221a67.479,67.479,0,0,1-13.569-6.277A102.8,102.8,0,0,1,645.662,957.9c-11.163-13.782-19.252-30.59-24.041-49.956-5.942-24.025-6.789-52.083-2.519-83.4l.5-3.684,3.582.99c.38.1,38.258,10.257,61.929-6.4l1.522-1.071,1.694.77c.356.162,36.113,16.118,65.951,7.128l3.644-1.1.515,3.77a237.422,237.422,0,0,1-2.152,67.01c-3.741,20.9-10.345,39.169-19.627,54.3-11.689,19.049-27.652,33.119-47.444,41.818Zm-63.054-159.58c-3.608,28.928-2.676,54.852,2.777,77.1,4.511,18.407,12.113,34.355,22.594,47.4,15.483,19.275,32.846,26.52,37.3,28.137,18.029-8.193,32.616-21.226,43.374-38.755,8.856-14.432,15.171-31.941,18.768-52.041a238.9,238.9,0,0,0,2.508-61.307c-9.586,2.256-24.165,3.449-43.8-1.041a138.093,138.093,0,0,1-21.265-6.673c-10.779,6.978-25.347,10.315-42.275,9.66A120.109,120.109,0,0,1,625.079,828.975Z" transform="translate(-616.428 -814.383)"/>
    </g>
    <g id="Grupo_35" data-name="Grupo 35" transform="translate(670.508 861.318)">
      <ellipse id="Elipse_22" data-name="Elipse 22" cx="16.936" cy="13.856" rx="16.936" ry="13.856" transform="translate(0)" fill="#fff"/>
    </g>
    <g id="Grupo_36" data-name="Grupo 36" transform="translate(649.081 843.109)">
      <path id="Caminho_151" data-name="Caminho 151" d="M750.4,921.231c-.029-7.433-10.8-12.689-15.714-13.946-7.3-1.867-12.389-1.665-13.971.554-1.193,1.674-.3,4.323.539,5.6,1.475,2.236,2.592,2.923,3.141,2.818,1.089-.205,2.426-3.052,2.946-5.478l3.18.676c-.256,1.209-1.727,7.278-5.52,8-2.168.411-4.341-1.01-6.459-4.222-1.639-2.486-2.487-6.449-.473-9.275,2.509-3.522,8.372-4.133,17.423-1.816a33.9,33.9,0,0,1,11.113,5.4c4.593,3.438,7.03,7.478,7.046,11.681Z" transform="translate(-716.891 -902.761)" fill="#fff"/>
    </g>
    <g id="Grupo_37" data-name="Grupo 37" transform="translate(688.785 842.861)">
      <path id="Caminho_152" data-name="Caminho 152" d="M842.3,920.463l-3.25-.013c.016-4.2,2.39-8.232,6.865-11.665a32.831,32.831,0,0,1,10.9-5.414c8.776-2.3,14.495-1.706,17,1.755,2.048,2.829,1.238,6.815-.381,9.321-2.059,3.187-4.184,4.6-6.317,4.207-3.748-.694-5.209-6.761-5.464-7.97l3.18-.672c.642,3.016,2.03,5.291,2.875,5.446.5.092,1.578-.582,2.995-2.775.895-1.385,1.635-4.054.478-5.652-1.57-2.169-6.507-2.357-13.544-.516C852.838,907.769,842.325,913.022,842.3,920.463Z" transform="translate(-839.046 -902)" fill="#fff"/>
    </g>
    <g id="Grupo_38" data-name="Grupo 38" transform="translate(662.946 895.474)">
      <path id="Caminho_153" data-name="Caminho 153" d="M759.594,1070.756c1.161,8.224,5.536,7.909,6.774,7.647a4.565,4.565,0,0,1,.8-.1l37.006-1.17a4.83,4.83,0,0,0,4.675-5l-.126-3.6a4.831,4.831,0,0,0-5-4.658l-39.518,1.383A4.831,4.831,0,0,0,759.594,1070.756Z" transform="translate(-759.546 -1063.871)" fill="#fff"/>
    </g>
    <g id="Grupo_39" data-name="Grupo 39" transform="translate(666.505 911.505)">
      <path id="Caminho_154" data-name="Caminho 154" d="M770.54,1119.084c.993,7.037,4.737,6.767,5.8,6.542a3.91,3.91,0,0,1,.685-.087l31.662-1a4.132,4.132,0,0,0,4-4.275l-.108-3.082a4.133,4.133,0,0,0-4.274-3.985l-33.812,1.183A4.134,4.134,0,0,0,770.54,1119.084Z" transform="translate(-770.499 -1113.193)" fill="#fff"/>
    </g>
    <g id="Grupo_40" data-name="Grupo 40" transform="translate(675.068 927.263)">
      <path id="Caminho_155" data-name="Caminho 155" d="M800.132,1162.557l19.729-.88a3.438,3.438,0,0,1,2.691,5.755l-9.495,10.381a3.438,3.438,0,0,1-4.876.2l-10.235-9.5A3.439,3.439,0,0,1,800.132,1162.557Z" transform="translate(-796.841 -1161.674)" fill="#fff"/>
    </g>
  </g>
</svg>
