<svg xmlns="http://www.w3.org/2000/svg" width="62.121" height="68.548" viewBox="0 0 62.121 68.548"><defs><style>.a{fill:#fdca0c;}.b{fill:#0414b0;}</style></defs><g transform="translate(0 0)"><path class="a" d="M40.434,7.478a15.064,15.064,0,0,0-5.635-1.8V3.082s-1.916-5.541-6.65-1.766a3.058,3.058,0,0,0-.831,1.817c-.056,1.056,0,2.494,0,2.494S9.892,8.417,9.554,26.336V39a9.154,9.154,0,0,1-1.916,3.851L.115,51.3s-1.183,3.973,3.973,3.635,55.364.021,55.364.021,6-1.12,0-6.191l-5.663-6.254s-1.775-1.863-1.268-7.441a71.347,71.347,0,0,0-.253-12.256S38.237,22.739,40.434,7.478Z" transform="translate(0.002 0)"/><ellipse class="b" cx="9.428" cy="9.428" rx="9.428" ry="9.428" transform="translate(42.998 1.057)"/><path class="a" d="M256.932,660.383c0,5.82-4.006,9.528-9.826,9.528s-9.279-2.992-9.9-9.472C237.177,660.1,256.932,660.383,256.932,660.383Z" transform="translate(-216.045 -601.363)"/></g></svg>