<svg xmlns="http://www.w3.org/2000/svg" width="389.555" height="235.478" viewBox="0 0 389.555 235.478">
  <g id="Grupo_9" data-name="Grupo 9" transform="translate(-0.01)">
    <path id="Caminho_73" data-name="Caminho 73" d="M154.669,80.923a8.365,8.365,0,1,0-3.7-15.65l1.476,4.049L149.408,66.4a8.333,8.333,0,0,0-2.7,5.773,8.167,8.167,0,0,0,.212,2.3A8.363,8.363,0,0,0,154.669,80.923Z" transform="translate(177.004 76.869)" fill="#57b894"/>
    <path id="Caminho_74" data-name="Caminho 74" d="M169.973,131.569c-1.774-3.284.238-7.309,2.551-10.237s5.133-5.976,5.073-9.707c-.086-5.362-5.779-8.529-10.325-11.371A50.363,50.363,0,0,1,158,92.8a13.6,13.6,0,0,1-2.849-3.815A15.493,15.493,0,0,1,154.3,82.2q.295-11.476,1.134-22.932" transform="translate(186.146 70.921)" fill="none" stroke="#3f3d56" stroke-miterlimit="10" stroke-width="1"/>
    <path id="Caminho_75" data-name="Caminho 75" d="M154.669,80.4a8.365,8.365,0,1,0-3.7-15.65l1.476,4.049-3.041-2.919a8.333,8.333,0,0,0-2.7,5.773,8.175,8.175,0,0,0,.212,2.3A8.363,8.363,0,0,0,154.669,80.4Z" transform="translate(177.004 76.235)" fill="none" stroke="#3f3d56" stroke-miterlimit="10" stroke-width="1"/>
    <path id="Caminho_76" data-name="Caminho 76" d="M150.884,64.146a8.359,8.359,0,0,1,4.175-6.854L156.933,61l-.057-4.484a8.367,8.367,0,1,1-5.991,7.633Z" transform="translate(182.046 67.177)" fill="#57b894"/>
    <path id="Caminho_77" data-name="Caminho 77" d="M150.884,63.444a8.356,8.356,0,0,1,4.175-6.852l1.873,3.705-.057-4.484a8.366,8.366,0,1,1-5.991,7.631Z" transform="translate(182.046 66.331)" fill="none" stroke="#3f3d56" stroke-miterlimit="10" stroke-width="1"/>
    <path id="Caminho_78" data-name="Caminho 78" d="M163.9,87.219a8.364,8.364,0,0,0,2.655-16.407l.042,3.447L164.7,70.51h-.022a8.364,8.364,0,0,0-.781,16.709Z" transform="translate(188.14 84.469)" fill="#57b894"/>
    <path id="Caminho_79" data-name="Caminho 79" d="M163.869,86.519a8.364,8.364,0,0,0,2.655-16.407l.042,3.445-1.893-3.747-.022,0a8.365,8.365,0,0,0-.781,16.711Z" transform="translate(188.105 83.622)" fill="none" stroke="#3f3d56" stroke-miterlimit="10" stroke-width="1"/>
    <path id="Caminho_80" data-name="Caminho 80" d="M158.145,91.925a8.362,8.362,0,1,0-.4-6.733l5.223,4.25-5.746-1.333A8.255,8.255,0,0,0,158.145,91.925Z" transform="translate(189.701 95.614)" fill="#57b894"/>
    <path id="Caminho_81" data-name="Caminho 81" d="M158.145,91.4a8.362,8.362,0,1,0-.4-6.733l5.223,4.25-5.746-1.333A8.255,8.255,0,0,0,158.145,91.4Z" transform="translate(189.701 94.98)" fill="none" stroke="#3f3d56" stroke-miterlimit="10" stroke-width="1"/>
    <path id="Caminho_82" data-name="Caminho 82" d="M147.521,32.52a18.27,18.27,0,0,1-1.467,11.962,40.475,40.475,0,0,1-7.042,10.01c-1.379,1.531-2.873,3.158-3.167,5.2-.391,2.721,1.443,5.181,2.674,7.64a18.716,18.716,0,0,1,1.926,6.887c.166,2.059-.093,4.327-1.536,5.806-1.39,1.426-3.526,1.772-5.508,1.955a70.392,70.392,0,0,1-16.4-.395c1.523-2.026.951-3.281.808-5.808-.28-4.961-3.89-9.451-4.592-14.37-.556-3.91,2.032-7.5,4.477-10.6l11.219-14.218a43.476,43.476,0,0,0,5.044-7.483c.953-1.931,1.132-5.554,3.533-6.2C142.018,21.694,146.641,29.058,147.521,32.52Z" transform="translate(136.52 26.876)" fill="#47465a"/>
    <path id="Caminho_83" data-name="Caminho 83" d="M110.331,32.5s-7.739,22.828-11.607,24.377,23.214,29.406,23.214,29.406l19.734-9.674.772-18.571-7.739-.386s-1.161-7.739,2.71-11.609S110.331,32.5,110.331,32.5Z" transform="translate(118.66 38.614)" fill="#fbbebe"/>
    <path id="Caminho_84" data-name="Caminho 84" d="M110.331,32.5s-7.739,22.828-11.607,24.377,23.214,29.406,23.214,29.406l19.734-9.674.772-18.571-7.739-.386s-1.161-7.739,2.71-11.609S110.331,32.5,110.331,32.5Z" transform="translate(118.66 38.614)" opacity="0.1"/>
    <path id="Caminho_85" data-name="Caminho 85" d="M134.047,61.25s-16.638-11.221-17.413-20.509c0,0-12.382,8.127-16.25,7.739s-14.317,1.935-14.317,3.482,9.674,45.27,9.674,45.27-6.964,18.574-3.482,24.377S97.674,154.5,97.674,154.5h80.482s-10.835-18.96-5.031-32.5,8.127-70.42,8.127-70.42-4.257-3.1-8.513-2.321-9.286-2.321-12.382-2.71-10.111,1.2-10.111,1.2Z" transform="translate(103.844 48.558)" fill="#fdca0c"/>
    <path id="Caminho_86" data-name="Caminho 86" d="M382.2,97.628v17.025a11.389,11.389,0,0,1-11.247,11.389L12.731,130.464a6.539,6.539,0,0,1-6.62-6.459V105.1a6.482,6.482,0,0,1,6.282-6.481l359.4-11.093A10.1,10.1,0,0,1,382.2,97.317C382.2,97.421,382.2,97.525,382.2,97.628Z" transform="translate(7.362 105.013)" fill="#47465a"/>
    <path id="Caminho_87" data-name="Caminho 87" d="M382.2,97.728v4.614a11.389,11.389,0,0,1-11.247,11.389L12.731,118.153a6.539,6.539,0,0,1-6.62-6.459v-.686Z" transform="translate(7.362 117.324)" opacity="0.1"/>
    <path id="Caminho_88" data-name="Caminho 88" d="M213.49,95.508l-45.325-5.881-80.6,2.94,29.189,9.132Z" transform="translate(105.656 107.549)" fill="#f2f2f2"/>
    <path id="Caminho_89" data-name="Caminho 89" d="M134.321,92.969v4.643l-44.11,10.06-4.31-.994-.72-.166L53.453,89.487Z" transform="translate(64.489 107.379)" fill="#9493b6"/>
    <path id="Caminho_90" data-name="Caminho 90" d="M116.971,91.065v4.643l-44.11,10.06-4.31-.994-.72-4.81Z" transform="translate(81.839 109.284)" opacity="0.1"/>
    <path id="Caminho_91" data-name="Caminho 91" d="M73.9,97.781c.775-.386,17.025-3.482,17.025-3.482L61.519,91.591Z" transform="translate(74.222 109.919)" fill="#47465a"/>
    <circle id="Elipse_6" data-name="Elipse 6" cx="25.15" cy="25.15" r="25.15" transform="translate(224.734 40.547)" fill="#fbbebe"/>
    <path id="Caminho_92" data-name="Caminho 92" d="M110.191,81.757s-22.44,9.674-27.857,6.967-21.67-9.674-26.7,4.643c-4.056,11.545,19.624,12.269,28.943,12.117a7.793,7.793,0,0,0,5.881-2.831h0l32.308-11.027S115.608,79.435,110.191,81.757Z" transform="translate(66.563 97.697)" fill="#fbbebe"/>
    <path id="Caminho_93" data-name="Caminho 93" d="M122.735,73.531l2.708,2.321-25.15,35.6s-3.871.388-2.71-1.547Z" transform="translate(117.477 88.126)" fill="#47465a"/>
    <path id="Caminho_94" data-name="Caminho 94" d="M110.2,76.91l2.708-3.482-1.161-.774-2.708,3.1Z" transform="translate(131.561 87.067)" fill="#47465a"/>
    <path id="Caminho_95" data-name="Caminho 95" d="M113.646,44.687s-13.156,2.321-12.768,12.382-2.9,21.473-6,26.891-.775,9.674,0,17.025-3.871,15.089-1.549,18.96-25.15,6.578-25.15,10.446S85.595,141.611,82.5,146.643c-2.227,3.617,13.47-2.476,22.453-6.181a15.68,15.68,0,0,0,9.414-11.014,5.909,5.909,0,0,0,.055-3.12c-1.161-3.1,12.574-7.158,12.962-14.9s-1.935-15.476-3.871-23.214S113.646,44.687,113.646,44.687Z" transform="translate(82.262 53.32)" fill="#fdca0c"/>
    <path id="Caminho_96" data-name="Caminho 96" d="M4.176,63.038l113.464,1.075a4.124,4.124,0,0,1,3.714,2.412l30.578,67a4.122,4.122,0,0,1-3.895,5.835L34.176,135.42a4.128,4.128,0,0,1-3.59-2.368L.4,68.921a4.127,4.127,0,0,1,3.771-5.883Z" transform="translate(0 75.464)" fill="#7a799c"/>
    <path id="Caminho_97" data-name="Caminho 97" d="M153.326,81.7s-22.442,9.674-27.859,6.967-21.667-9.674-26.7,4.643c-4.058,11.545,19.622,12.269,28.941,12.117a7.786,7.786,0,0,0,5.881-2.831h0l32.891-3.482S158.744,79.378,153.326,81.7Z" transform="translate(118.613 97.754)" fill="#fbbebe"/>
    <path id="Caminho_98" data-name="Caminho 98" d="M141.031,50.3s5.612-7.545,8.319-.58,2.321,34.049,2.321,34.049,4.643,13.542,3.1,22.442,1.547,10.06,1.547,10.06.775,3.868-1.547,5.8-3.868,10.446-3.1,11.607-1.161,8.513-2.708,8.513a40.5,40.5,0,0,1-4.837-.58s-7.933-14.511-24.569-15.672c0,0,2.708-3.868,1.161-11.607S141.031,50.3,141.031,50.3Z" transform="translate(144.257 55.832)" opacity="0.1"/>
    <path id="Caminho_99" data-name="Caminho 99" d="M138.584,46.068s6.384-2.513,9.092,4.451,5.225,34.63,5.225,34.63,4.643,13.542,3.094,22.442,1.549,10.06,1.549,10.06.772,3.868-1.549,5.8-3.868,10.446-3.094,11.607-1.161,8.513-2.71,8.513-15.864,2.321-15.864,2.321,3.1-17.413-13.542-18.574c0,0,2.71-3.868,1.161-11.607S138.584,46.068,138.584,46.068Z" transform="translate(145.737 54.453)" fill="#fdca0c"/>
    <path id="Caminho_100" data-name="Caminho 100" d="M148.31,16.408a29.371,29.371,0,0,0-26.1-2.522,46.191,46.191,0,0,0-12.342,7.838c-3.019,2.511-5.962,5.252-7.816,8.712-2.811,5.248-2.8,11.495-2.727,17.448a125.566,125.566,0,0,0,.841,15.515c.969,7.044,3.138,14.017,2.639,21.109s-4.665,14.659-11.634,16.074a93.4,93.4,0,0,0,19.439-.56c4.06-.545,8.324-1.474,11.292-4.3,2.169-2.063,3.394-4.905,4.46-7.7a24,24,0,0,0,2.015-8.736c-.077-6.256-4.422-11.5-7.258-17.082a10.9,10.9,0,0,1-1.465-5,4.59,4.59,0,0,1,2.575-4.248c2.015-.8,4.345.393,6.439-.166,3.365-.9,4.237-5.57,7.326-7.178,2.284-1.189,5.2-.3,7.123,1.419A17.043,17.043,0,0,0,145.7,49.3a9.161,9.161,0,0,0,4.555.839c2.917.033,12.869-4.537,14.97-6.558,2.05,10.544,17.3,1.366,8.547-14.191-3.045-5.417-7.086-10.449-12.461-13.567s-12.232-4.089-17.874-1.483" transform="translate(109.999 13.799)" fill="#47465a"/>
    <ellipse id="Elipse_7" data-name="Elipse 7" cx="3.482" cy="6.191" rx="3.482" ry="6.191" transform="translate(228.797 65.504)" fill="#fbbebe"/>
    <path id="Caminho_101" data-name="Caminho 101" d="M124.018,43.638s21.475,3.087,22.636,4.636-1.161,10.833-1.161,10.833l-15.478,2.71-11.909-2.569Z" transform="translate(142.505 52.054)" fill="#fdca0c"/>
    <path id="Caminho_102" data-name="Caminho 102" d="M96.655,50.541c-3.235-.558-6.388,2.37-8.063,6.229S86.462,65.253,86.3,69.746a49.654,49.654,0,0,0,.951,13.269c2.088,8.719,7.693,14.882,10.936,22.9a44.889,44.889,0,0,1,2.946,20.012" transform="translate(104.044 60.302)" opacity="0.1"/>
    <path id="Caminho_103" data-name="Caminho 103" d="M97.707,50.541c-3.235-.558-6.388,2.37-8.063,6.229s-2.129,8.483-2.295,12.975A49.652,49.652,0,0,0,88.3,83.015c2.088,8.719,7.693,14.882,10.936,22.9a44.889,44.889,0,0,1,2.946,20.012" transform="translate(105.314 60.302)" fill="#fdca0c"/>
    <path id="Caminho_104" data-name="Caminho 104" d="M148.367,100.941,185.8,115.913l23.395-4.211-2.04-16.745-.3-2.438-39.3-12.165-2.808,2.807Z" transform="translate(179.02 96.359)" fill="#fdca0c"/>
    <path id="Caminho_105" data-name="Caminho 105" d="M158.12,81.7v16.2l39.3,12.165-2.04-16.745Z" transform="translate(190.789 97.988)" opacity="0.1"/>
    <path id="Caminho_106" data-name="Caminho 106" d="M141.911,104.1l2.648.98,31.591,11.7,2.456.909a.516.516,0,0,0,.47-.055l2.893-1.94L212.064,95.5l2.842-1.907a.52.52,0,0,0,.143-.724.513.513,0,0,0-.28-.21l-4.535-1.388-31.867-9.762-2.783-.854a.522.522,0,0,0-.446.066L172.946,82.2l-28.391,19.121-2.752,1.854a.523.523,0,0,0-.143.726A.533.533,0,0,0,141.911,104.1Z" transform="translate(170.819 96.699)" fill="#7a799c"/>
    <path id="Caminho_107" data-name="Caminho 107" d="M203.943,93.572l-28.2,19.178a1.039,1.039,0,0,1-.94.117l-29.936-10.93a1.048,1.048,0,0,1-.622-1.344,1.035,1.035,0,0,1,.41-.514l27.292-17.812a1.041,1.041,0,0,1,.876-.121l30.841,9.562a1.048,1.048,0,0,1,.278,1.865Z" transform="translate(173.969 98.464)" fill="#f2f2f2"/>
    <path id="Caminho_108" data-name="Caminho 108" d="M172.687,85.457v4.228h1.829l2.842-1.907a.52.52,0,0,0,.143-.724.513.513,0,0,0-.28-.21Z" transform="translate(208.367 102.517)" fill="#fdca0c"/>
    <path id="Caminho_109" data-name="Caminho 109" d="M157.241,96.415v1.324l2.456.909a.516.516,0,0,0,.47-.055l2.893-1.94v-.238Z" transform="translate(189.728 115.74)" fill="#fdca0c"/>
    <path id="Caminho_110" data-name="Caminho 110" d="M141.911,92.788l2.648.98V90.01h0L141.8,91.864a.523.523,0,0,0-.143.726A.533.533,0,0,0,141.911,92.788Z" transform="translate(170.819 108.011)" fill="#fdca0c"/>
    <path id="Caminho_111" data-name="Caminho 111" d="M155.789,82.2h5.422v-.688l-2.783-.854a.522.522,0,0,0-.446.066Z" transform="translate(187.976 96.699)" fill="#fdca0c"/>
    <circle id="Elipse_8" data-name="Elipse 8" cx="0.387" cy="0.387" r="0.387" transform="translate(331.527 187.58)" fill="#f2f2f2"/>
    <rect id="Ret창ngulo_15" data-name="Ret창ngulo 15" width="153.998" height="78.16" transform="translate(13.421 10.367)" fill="#f2f2f2"/>
    <path id="Caminho_112" data-name="Caminho 112" d="M18.337,68.99,53.215,10.758,89.393,68.99" transform="translate(22.114 12.378)" fill="#fdca0c"/>
    <path id="Caminho_113" data-name="Caminho 113" d="M42.4,33.59,49.367,15.4,88.833,63.383H42.209Z" transform="translate(50.92 17.985)" fill="#fdca0c"/>
    <path id="Caminho_114" data-name="Caminho 114" d="M44.5,30.174a9.674,9.674,0,1,0-10.1-16.5l-.013.009" transform="translate(41.487 14.175)" fill="#fdca0c"/>
    <rect id="Ret창ngulo_16" data-name="Ret창ngulo 16" width="153.998" height="78.16" transform="translate(22.514 0.5)" fill="none" stroke="#3f3d56" stroke-miterlimit="10" stroke-width="1"/>
    <path id="Caminho_115" data-name="Caminho 115" d="M19.214,67.763,54.092,9.53,90.27,67.763" transform="translate(23.172 10.897)" fill="none" stroke="#3f3d56" stroke-miterlimit="10" stroke-width="1"/>
    <path id="Caminho_116" data-name="Caminho 116" d="M42.822,32.012l6.965-18.186L89.254,62.579" transform="translate(51.661 16.08)" fill="none" stroke="#3f3d56" stroke-miterlimit="10" stroke-width="1"/>
    <path id="Caminho_117" data-name="Caminho 117" d="M45.731,27.719a9.674,9.674,0,0,0-10.1-16.5l-.015.011" transform="translate(42.967 11.213)" fill="none" stroke="#3f3d56" stroke-miterlimit="10" stroke-width="1"/>
  </g>
</svg>
