<svg xmlns="http://www.w3.org/2000/svg" xmlns:xlink="http://www.w3.org/1999/xlink" viewBox="0 0 2555.1 234.95"><defs><style>.cls-1,.cls-4{fill:none;}.cls-2{clip-path:url(#clip-path);}.cls-3{fill:#ebc02e;stroke:#ebc02e;}.cls-3,.cls-4{stroke-miterlimit:10;}.cls-4{stroke:#211915;stroke-width:6px;}</style><clipPath id="clip-path"><rect class="cls-1" x="74.57" y="26.43" width="2208.89" height="189.03"/></clipPath></defs><title>barraDeProgresso_1</title><g id="Camada_2" data-name="Camada 2"><g id="Camada_1-2" data-name="Camada 1"><g class="cls-2"><rect class="cls-3" x="75.83" y="27.13" width="2208.89" height="189.03"/><path class="cls-4" d="M100.5,1.19l-97.74,227Z"/><path class="cls-4" d="M185.89,1.42l-97.75,227Z"/><path class="cls-4" d="M288.78,1.65,191,228.68Z"/><path class="cls-4" d="M391.67,1.88l-97.75,227Z"/><path class="cls-4" d="M494.56,2.11l-97.75,227Z"/><path class="cls-4" d="M597.45,2.34l-97.75,227Z"/><path class="cls-4" d="M700.34,2.57l-97.75,227Z"/><path class="cls-4" d="M803.23,2.8l-97.75,227Z"/><path class="cls-4" d="M906.12,3l-97.75,227Z"/><path class="cls-4" d="M1009,3.27l-97.75,227Z"/><path class="cls-4" d="M1111.9,3.5l-97.75,227Z"/><path class="cls-4" d="M1214.78,3.73l-97.74,227Z"/><path class="cls-4" d="M1317.67,4l-97.74,227Z"/><path class="cls-4" d="M1420.56,4.19l-97.74,227Z"/><path class="cls-4" d="M1523.45,4.42l-97.74,227Z"/><path class="cls-4" d="M1626.34,4.65l-97.74,227Z"/><path class="cls-4" d="M2552.35,6.74l-97.75,227Z"/><path class="cls-4" d="M1729.23,4.89l-97.75,227Z"/><path class="cls-4" d="M1832.12,5.12l-97.75,227Z"/><path class="cls-4" d="M1935,5.35l-97.75,227Z"/><path class="cls-4" d="M2037.9,5.58l-97.75,227Z"/><path class="cls-4" d="M2140.79,5.81l-97.75,227Z"/><path class="cls-4" d="M2243.68,6l-97.75,227Z"/><path class="cls-4" d="M2343.07,6.27l-97.75,227Z"/><path class="cls-4" d="M2449.46,6.5l-97.75,227Z"/></g></g></g></svg>