<svg xmlns="http://www.w3.org/2000/svg" viewBox="0 0 113.22 156.15"><defs><style>.cls-1{fill:#080408;}</style></defs><title>CADEADO</title><g id="Camada_2" data-name="Camada 2"><g id="Camada_1-2" data-name="Camada 1"><path class="cls-1" d="M113.22,80.83c0-3.71-1.32-5.6-4.83-6.85-1.15-.41-2.28-.86-3.43-1.26-2-.7-2.1-.78-2.1-2.93,0-7.71,0-15.43,0-23.15a46.27,46.27,0,0,0-1.78-13.38Q93.33,8.1,68,1C65.7.32,63.31.36,61,0H59.76c-.21.37-.41.32-.61,0H54.27c-.2.32-.4.37-.61,0H51.83c-1.62.39-3.31.24-4.94.6A45.38,45.38,0,0,0,21.23,16.22,45.77,45.77,0,0,0,10.55,46.14c-.06,7.81,0,15.63,0,23.44,0,2.37,0,2.4-2.2,3.17-1.29.46-2.57,1-3.86,1.41A7,7,0,0,0,0,80.73c.09,19.64,0,39.28.05,58.92,0,3.76,1.42,5.83,4.93,7.15,14.1,5.31,28.56,8.87,43.72,9.2a192.18,192.18,0,0,0,24-.46,136.33,136.33,0,0,0,36.1-8.89c3.16-1.24,4.4-3.13,4.42-6.53Zm-49.4,27.66a2.14,2.14,0,0,0-1,2c0,6.45,0,12.89,0,19.34a6.12,6.12,0,0,1-9.39,5.12A5.64,5.64,0,0,1,50.6,130c-.05-3.3,0-6.6,0-9.9h0c0-3.3,0-6.6,0-9.9a1.69,1.69,0,0,0-.83-1.6c-4.31-3-6.17-7.28-5.14-12.41a11.73,11.73,0,0,1,9.29-9.57,12.24,12.24,0,0,1,15,10.71A11.55,11.55,0,0,1,63.82,108.49Zm21.5-40.65a140.12,140.12,0,0,0-38.71-2.59,135.48,135.48,0,0,0-18.49,2.57c-.94.2-1.32.18-1.31-1,.05-7.51-.07-15,.06-22.53C27.12,30.46,38.59,18,52.23,16.07A30.05,30.05,0,0,1,84,33.43a28.49,28.49,0,0,1,2.57,11.15c.07,3.55,0,7.1,0,10.66h0c0,3.85,0,7.71,0,11.57C86.63,67.89,86.33,68,85.32,67.84Z"/></g></g></svg>