<svg xmlns="http://www.w3.org/2000/svg" viewBox="0 0 457.06 632.9"><defs><style>.cls-1{fill:#efcb27;}.cls-1,.cls-2{stroke:#040006;stroke-miterlimit:10;stroke-width:5px;}.cls-2{fill:none;}.cls-3{fill:#cd8c0c;}.cls-4{fill:#ba7a15;}.cls-5{fill:#ba7915;}.cls-6{fill:#c17d12;}</style></defs><title>colmeiazinha</title><g id="Camada_2" data-name="Camada 2"><g id="Camada_1-2" data-name="Camada 1"><g id="colmeia"><path class="cls-1" d="M237.17,3.65s47.16.43,65.68,34.11c0,0,72.43,30.74,54.74,72,0,0,74.53,29.47,37.48,81.68,0,0,104.84,34.95,32.42,139.79,0,0,64.42,39.16-5.48,115.37,0,0,11,73.26-74.7,110.32,0,0-103.82,161.05-225.72,6.31,0,0-80.21-22.73-68.84-85.26,0,0-87.16-41.68-28.42-141.47,0,0-60-67.58,19-137.69,0,0-26.53-43.58,48.63-86.52,0,0-22.74-46.74,42.31-72.64C134.22,39.65,122.86-5.19,237.17,3.65Z"/><path class="cls-2" d="M134.22,39.65S220.48,105,302.85,37.76"/><path class="cls-2" d="M91.91,112.29s7.16,19.93,35.09,33.46c60,29.05,221.3,17.68,230.59-36"/><path class="cls-2" d="M427.49,331.23S360.69,425.53,151,402.8c-62.11-6.74-107.72-47.16-126.67-66.3"/><path class="cls-2" d="M52.75,478s137.75,68.69,317.83,1.46c19.52-7.29,37.05-18.11,51.43-32.83"/><path class="cls-2" d="M347.31,556.92s-116.18,44.22-225.72,6.31"/><ellipse class="cls-3" cx="218.9" cy="34.98" rx="59.68" ry="24.24"/><path class="cls-3" d="M288.69,51c5.06-2.95,107.73,86-72.72,86.48-30,.09-178.2-11.47-77.14-92.08C140.64,44,208.48,97.75,288.69,51Z"/><path class="cls-4" d="M143.31,53.7S79.23,99.32,162,121.43s139-32.84,108-48.63C270,72.8,176.45,91.44,143.31,53.7Z"/><ellipse class="cls-4" cx="213.84" cy="35.23" rx="33.16" ry="14.36"/><path class="cls-3" d="M393,207.21c4,7,155.76,175.94-183.35,178.53-60.88.47-288.27-62.69-166.41-186.93,9.47,8.4,32.89,30.6,53.41,35.84,216,55.1,289-35.16,289-35.16S391.71,204.9,393,207.21Z"/><path class="cls-3" d="M350.32,130.38S420.74,259.75,160.21,238c0,0-180.1-21.87-61.68-111.36,0,0,21,40.2,142.52,36.62C248.21,163,308.42,161.75,350.32,130.38Z"/><path class="cls-5" d="M52.75,214.59s-95.64,120,141.83,140.21c0,0,237.25,29.3,183-147,0,0-38.79,47.12-164,47.18S56.18,221.75,52.75,214.59Z"/><path class="cls-4" d="M98.44,130.48S3.57,203.86,174.1,223.76s184.73-73.15,167.68-82.52C325.18,147.65,203.73,218.14,98.44,130.48Z"/><path class="cls-3" d="M399,360.53s64.49,115.92-196.94,131.38S15.9,332.49,26.16,341.22c46.53,39.58,77.13,57.2,118.32,62.74,38,5.11,47.2,5.51,116.21,1.85C303.53,403.54,360.9,385.22,399,360.53Z"/><path class="cls-4" d="M373.79,383c29.66,7.25,1.24,111.84-208,102.1-205.91-9.58-156-136.8-128.21-123.35,16.35,7.91,89.66,54.79,173.82,53C320.09,412.46,367.61,381.52,373.79,383Z"/><path class="cls-3" d="M385.68,476.87S392,574,218.11,564.3,56.94,511.81,62.58,484.9C62.58,484.9,219.3,549.46,385.68,476.87Z"/><path class="cls-6" d="M336.75,494.6S319.11,568,173.84,550.27s-103.52-62.5-103.52-62.5,57.31,22.71,145.31,23.92C266.23,512.39,336.75,494.6,336.75,494.6Z"/><path class="cls-3" d="M286.43,574.34C294.14,573,282,619.06,227.36,622c-52.46,2.85-61.85-44.68-52.41-44.44C195,578.09,237.38,583.06,286.43,574.34Z"/><path class="cls-2" d="M395.07,191.44S298.48,303,83.2,231.22c-10.61-3.54-30.45-16.63-39.92-32.41"/><path class="cls-4" d="M175,577.59c2.26.15,16.24,1.48,32.47,1.7,27.44.38,44,.56,68.36-3.25,0,0-29,32-59.93,24.39S165,576.89,175,577.59Z"/></g></g></g></svg>