<svg xmlns="http://www.w3.org/2000/svg" width="89.6" height="90.019" viewBox="0 0 89.6 90.019">
  <g id="css" transform="translate(-2.749 -2.356)">
    <path id="Caminho_53" data-name="Caminho 53" d="M91.354,3.724A3.837,3.837,0,0,0,88.512,2.4C78.378,2.3,18.52,2.4,6.586,2.4A3.551,3.551,0,0,0,3.744,3.724,3.585,3.585,0,0,0,2.8,6.754L10.09,81.009a3.624,3.624,0,0,0,2.747,3.22l32.486,7.956a14.132,14.132,0,0,0,1.989.189,15.491,15.491,0,0,0,2.084-.189l32.486-7.956A3.54,3.54,0,0,0,84.629,81.1L92.3,6.754A3.678,3.678,0,0,0,91.354,3.724ZM79.515,79.494,48.165,87.26a5.141,5.141,0,0,1-1.7,0L15.11,79.494,8.007,7.7c14.017,0,66.109-.095,78.99,0Z" transform="translate(0)" fill="#fff"/>
    <path id="Caminho_54" data-name="Caminho 54" d="M20.8,21.883a2.917,2.917,0,0,0,2.847,2.99H75.3c.2,0,.407,0,.508.107.2.32.2.427.1.534l-2.745,16.55H27.409a2.915,2.915,0,0,0-2.847,2.99,2.852,2.852,0,0,0,2.847,2.99H72.146L68.587,69.612l-16.98,6.62-17.081-6.62L32.289,57.867a2.787,2.787,0,0,0-3.254-2.349A2.908,2.908,0,0,0,26.8,58.935l2.847,14.949,21.962,8.435,21.962-8.542,7.829-47.3a6.526,6.526,0,0,0-1.322-5.232l-.1-.107A6.1,6.1,0,0,0,75.3,19H23.545A2.8,2.8,0,0,0,20.8,21.883Z" transform="translate(-3.104 -3.744)" fill="#fff"/>
  </g>
</svg>
