<svg xmlns="http://www.w3.org/2000/svg" width="70.745" height="53.059" viewBox="0 0 70.745 53.059">
  <g id="Camada_2" data-name="Camada 2" transform="translate(41 166)">
    <g id="Camada_1" data-name="Camada 1" transform="translate(-41 -166)">
      <g id="Dribbble-Light-Preview">
        <g id="icons">
          <path id="Caminho_46" data-name="Caminho 46" d="M63.67,8.1,39.334,29.5a6.013,6.013,0,0,1-7.923,0L7.074,8.065v-.99h56.6ZM7.074,39.935V30.7a5.978,5.978,0,0,1,9.94-4.492l14.4,12.7a6.013,6.013,0,0,0,7.923,0l14.4-12.663a5.978,5.978,0,0,1,9.94,4.492v9.268a5.978,5.978,0,0,1-5.978,5.978H13.052a5.978,5.978,0,0,1-5.978-5.978Zm-1.1,13.123H64.767a5.978,5.978,0,0,0,5.978-5.978V5.978A5.978,5.978,0,0,0,64.767,0H5.978A5.978,5.978,0,0,0,0,5.978v41.1a5.978,5.978,0,0,0,5.978,5.978Z" fill="#fdca0c" fill-rule="evenodd"/>
        </g>
      </g>
    </g>
  </g>
</svg>
