<svg xmlns="http://www.w3.org/2000/svg" width="51.826" height="49.975" viewBox="0 0 51.826 49.975">
  <g id="Camada_2" data-name="Camada 2" transform="translate(1.649 1.518)">
    <g id="a2889d33-42cc-41f0-88ec-ec050668376c">
      <path id="Caminho_118" data-name="Caminho 118" d="M9.395,2.052V12.7s-5.375,3.936-6.78,5.63a4.4,4.4,0,0,0,0,5.814L22.958,9.415s3.068-3,6.071,0L48.921,24.141s4.007-3.617-2.261-8.069S28.836,2.764,28.836,2.764s-2.97-2.844-5.829,0L14.951,8.771V1.988Z" transform="translate(-1.51 -1.5)" fill="none" stroke="#fff" stroke-linecap="round" stroke-linejoin="round" stroke-width="3"/>
      <path id="Caminho_119" data-name="Caminho 119" d="M20.181,64.38v23.4s-.267,4.261,3.623,4.261H53.741S58,91.758,58,87.592V64.877" transform="translate(-14.451 -45.089)" fill="none" stroke="#fff" stroke-miterlimit="10" stroke-width="3"/>
      <path id="Caminho_120" data-name="Caminho 120" d="M73.32,111.077V92.67H84.846v18.987" transform="translate(-51.29 -64.7)" fill="none" stroke="#fff" stroke-miterlimit="10" stroke-width="3"/>
    </g>
  </g>
</svg>
