<svg xmlns="http://www.w3.org/2000/svg" width="84.63" height="85.001" viewBox="0 0 84.63 85.001">
  <g id="Camada_2" data-name="Camada 2" transform="translate(-0.004 0.004)">
    <g id="Layer_1" data-name="Layer 1" transform="translate(0.004 -0.004)">
      <path id="Caminho_51" data-name="Caminho 51" d="M83.665,1.287A3.622,3.622,0,0,0,80.982.035c-9.569-.089-66.091,0-77.359,0A3.354,3.354,0,0,0,.939,1.287,3.381,3.381,0,0,0,.045,4.149L6.931,74.229a3.425,3.425,0,0,0,2.594,3.041l30.72,7.548A13.342,13.342,0,0,0,42.123,85a14.618,14.618,0,0,0,1.968-.179l30.675-7.512a3.345,3.345,0,0,0,2.594-2.951L84.6,4.149a3.47,3.47,0,0,0-.939-2.862ZM72.485,72.833,42.928,80.167a4.856,4.856,0,0,1-1.61,0l-29.6-7.333L4.964,5.044c13.236,0,62.424-.089,74.587,0Z" transform="translate(-0.004 0.004)" fill="#fff"/>
      <path id="Caminho_52" data-name="Caminho 52" d="M66.75,33.209,65.25,16H31L29.01,45H66.75l-1.5,23.847-18.2,6.638L29.01,67.864,27.76,56.8" transform="translate(-4.992 -3.269)" fill="none" stroke="#fff" stroke-linecap="round" stroke-linejoin="round" stroke-width="6"/>
    </g>
  </g>
</svg>
